<svg width="16" height="19" viewBox="0 0 16 19" fill="none" xmlns="http://www.w3.org/2000/svg">
<path d="M8.99999 1C8.99999 0.447715 8.55228 -1.53925e-07 7.99999 0C7.44771 1.53924e-07 6.99999 0.447716 6.99999 1L8.99999 1ZM7.29289 18.2071C7.68342 18.5976 8.31658 18.5976 8.70711 18.2071L15.0711 11.8431C15.4616 11.4526 15.4616 10.8195 15.0711 10.4289C14.6805 10.0384 14.0474 10.0384 13.6569 10.4289L8 16.0858L2.34314 10.4289C1.95262 10.0384 1.31945 10.0384 0.92893 10.4289C0.538406 10.8195 0.538406 11.4526 0.928931 11.8431L7.29289 18.2071ZM6.99999 1L7 17.5L9 17.5L8.99999 1L6.99999 1Z" fill="black"/>
</svg>
