<svg width="15" height="17" viewBox="0 0 15 17" fill="none" xmlns="http://www.w3.org/2000/svg">
<path d="M1.66667 16.6667C1.20833 16.6667 0.815833 16.5036 0.489167 16.1775C0.163055 15.8508 0 15.4583 0 15V3.33333C0 2.875 0.163055 2.48278 0.489167 2.15667C0.815833 1.83 1.20833 1.66667 1.66667 1.66667H2.5V0H4.16667V1.66667H10.8333V0H12.5V1.66667H13.3333C13.7917 1.66667 14.1842 1.83 14.5108 2.15667C14.8369 2.48278 15 2.875 15 3.33333V15C15 15.4583 14.8369 15.8508 14.5108 16.1775C14.1842 16.5036 13.7917 16.6667 13.3333 16.6667H1.66667ZM1.66667 15H13.3333V6.66667H1.66667V15ZM1.66667 5H13.3333V3.33333H1.66667V5Z" fill="#FAF9FE"/>
</svg>
