<svg width="512" height="512" viewBox="0 0 512 512" fill="none" xmlns="http://www.w3.org/2000/svg">
<rect width="512" height="512" rx="60" fill="#D9D9D9"/>
<path d="M417.168 40.7333C285.374 57.1616 254.65 176.914 254.65 176.914L264.201 207.285C264.201 207.285 301.355 86.5456 417.168 40.7333Z" fill="#4A423F"/>
<path d="M321.696 243.153C354.075 207.798 390.6 197.097 390.6 197.097C390.6 197.097 425.265 185.398 453.692 163.984C482.13 142.571 481.297 138.586 489.395 127.142C497.492 115.686 507.448 81.8298 495.409 59.1735C483.369 36.5173 453.692 37.5168 453.692 37.5168C453.692 37.5168 474.652 49.9598 477.558 69.3868C480.464 88.8138 472.366 111.957 459.504 127.142C446.631 142.328 392.469 176.94 381.049 182.912C369.629 188.883 323.138 213.039 321.685 243.166L321.696 243.153Z" fill="#1CACE1"/>
<path d="M356.767 461.745C424.849 464.731 423.46 416.599 420.971 396.352C418.482 376.105 398.281 339.25 371.713 317.683C345.144 296.103 325.221 275.523 324.388 256.929C323.554 238.335 360.09 222.406 360.09 222.406C360.09 222.406 344.044 232.696 342.655 248.625C341.266 264.554 361.745 286.8 392.191 313.352C422.638 339.904 452.795 385.383 454.184 416.586C455.573 447.79 450.862 504.226 356.778 461.732L356.767 461.745Z" fill="#1CACE1"/>
<path d="M283.985 342.569C281.773 365.802 283.152 389.701 310.831 428.209C338.499 466.717 385.824 451.109 385.824 451.109C385.824 451.109 344.45 447.124 321.695 416.253C298.93 385.383 283.985 342.556 283.985 342.556V342.569Z" fill="#1CACE1"/>
<path d="M184.186 246.716C153.174 209.643 117.087 196.956 117.087 196.956C117.087 196.956 82.9022 183.386 55.3085 160.448C27.7148 137.509 28.6869 133.575 21.038 121.696C13.3891 109.817 4.70397 75.4481 17.5875 53.471C30.4709 31.4939 60.073 34.0953 60.073 34.0953C60.073 34.0953 38.6647 45.3978 35.0218 64.6326C31.379 83.8673 38.6006 107.446 50.8751 123.311C63.1497 139.175 115.966 176.696 127.14 183.283C138.314 189.87 183.855 216.524 184.165 246.703L184.186 246.716Z" fill="#1CACE1"/>
<path d="M138.998 458.593C70.8734 459.182 73.4372 411.115 76.4284 390.97C79.4196 370.825 100.508 334.701 127.588 314.069C154.669 293.438 175.095 273.562 176.377 255.02C177.659 236.464 141.54 219.254 141.54 219.254C141.54 219.254 157.329 230.108 158.323 246.088C159.316 262.068 138.303 283.571 107.227 309.046C76.1507 334.521 44.8821 378.911 42.7348 410.064C40.5876 441.203 43.9099 497.78 138.998 458.618V458.593Z" fill="#1CACE1"/>
<path d="M214.611 345.516C214.92 368.903 211.598 392.52 180.917 427.607C150.236 462.68 104.417 441.613 104.417 441.613C104.417 441.613 145.92 442.497 171.089 414.446C196.257 386.395 214.621 345.529 214.621 345.529L214.611 345.516Z" fill="#1CACE1"/>
<path d="M225.593 248.625C225.593 248.625 233.477 315.851 247.589 325.808C247.589 325.808 263.367 271.538 232.227 195.342C201.097 119.159 179.507 84.3031 103.958 43.9626C103.958 43.9626 210.744 72.347 251.584 184.885C292.424 297.423 277.896 351.193 247.589 434.347C247.589 434.347 210.647 330.78 225.593 248.612V248.625Z" fill="#4A423F"/>
<path d="M247.182 138.086C258.186 138.086 267.106 127.386 267.106 114.187C267.106 100.988 258.186 90.2875 247.182 90.2875C236.179 90.2875 227.259 100.988 227.259 114.187C227.259 127.386 236.179 138.086 247.182 138.086Z" fill="#4A423F"/>
</svg>
