<svg width="14" height="21" viewBox="0 0 14 21" fill="none" xmlns="http://www.w3.org/2000/svg">
<path fill-rule="evenodd" clip-rule="evenodd" d="M0 7.56237C0 3.92602 2.95906 0.967773 6.62202 0.967773C10.285 0.967773 13.244 3.92602 13.244 7.56237C13.244 8.44126 13.0722 9.28116 12.7576 10.0495L12.768 10.0538L10.3208 15.0925L9.91606 16.0673L9.91265 16.0659C9.86095 16.2846 9.66182 16.4476 9.42404 16.4476C9.14698 16.4476 8.92238 16.2263 8.92238 15.9534C8.92238 15.859 8.94923 15.7709 8.9958 15.6959L8.98731 15.6924L9.28894 14.9671L9.28774 14.9666L11.7721 9.83964L11.7608 9.83479C12.0697 9.14166 12.2407 8.37327 12.2407 7.56237C12.2407 4.46095 9.71979 1.9562 6.62202 1.9562C3.52424 1.9562 1.00332 4.46095 1.00332 7.56237C1.00332 8.31211 1.15069 9.02682 1.4178 9.67959L1.42817 9.67536L6.63526 19.9793L7.94642 17.772C8.01432 17.5783 8.20103 17.4392 8.42073 17.4392C8.69778 17.4392 8.92238 17.6604 8.92238 17.9334C8.92238 17.9917 8.91214 18.0476 8.89333 18.0995L8.89451 18.1L7.56216 20.3577C7.22005 21.1711 6.05056 21.1711 5.70839 20.3578L0.530595 10.1234L0.520026 10.1278C0.184861 9.33821 0 8.47079 0 7.56237ZM6.63526 4.50338C4.97056 4.50338 3.62028 5.83418 3.62028 7.47675C3.62028 9.11932 4.97056 10.4501 6.63526 10.4501C8.29996 10.4501 9.65025 9.11932 9.65025 7.47675C9.65025 5.83418 8.29996 4.50338 6.63526 4.50338ZM2.61696 7.47675C2.61696 5.28913 4.41559 3.51495 6.63526 3.51495C8.85493 3.51495 10.6536 5.28913 10.6536 7.47675C10.6536 9.66437 8.85493 11.4386 6.63526 11.4386C4.41559 11.4386 2.61696 9.66437 2.61696 7.47675Z" fill="white"/>
</svg>
