<svg width="15" height="26" viewBox="0 0 15 26" fill="none" xmlns="http://www.w3.org/2000/svg">
<path fill-rule="evenodd" clip-rule="evenodd" d="M0 8.43671C0 4.31824 3.35139 0.967773 7.5 0.967773C11.6486 0.967773 15 4.31824 15 8.43671C15 9.43214 14.8053 10.3834 14.449 11.2536L14.4609 11.2584L11.9246 17.2887L11.9251 17.2889L11.4661 18.3927L11.4622 18.3911C11.4037 18.6389 11.1782 18.8235 10.9089 18.8235C10.5951 18.8235 10.3407 18.5729 10.3407 18.2637C10.3407 18.1568 10.3711 18.057 10.4238 17.972L10.4142 17.9682L10.7558 17.1467L10.7545 17.1461L13.3329 11.0159L13.3202 11.0104C13.6699 10.2254 13.8637 9.35513 13.8637 8.43671C13.8637 4.92409 11.0085 2.08725 7.5 2.08725C3.9915 2.08725 1.13634 4.92409 1.13634 8.43671C1.13634 9.28586 1.30325 10.0953 1.60578 10.8347L1.61752 10.8299L7.51494 24.8483L9.34896 20.4878C9.42586 20.2684 9.63733 20.1109 9.88615 20.1109C10.1999 20.1109 10.4543 20.3615 10.4543 20.6706C10.4543 20.7366 10.4427 20.8 10.4214 20.8588L10.4228 20.8593L8.56473 25.2768C8.17727 26.1981 6.85272 26.1981 6.46519 25.2769L0.600944 11.3373L0.588974 11.3423C0.209371 10.448 0 9.46558 0 8.43671ZM7.515 4.97215C5.62958 4.97215 4.10027 6.4794 4.10027 8.33975C4.10027 10.2001 5.62958 11.7073 7.515 11.7073C9.40042 11.7073 10.9297 10.2001 10.9297 8.33975C10.9297 6.4794 9.40042 4.97215 7.515 4.97215ZM2.96393 8.33975C2.96393 5.86208 5.00103 3.85267 7.515 3.85267C10.029 3.85267 12.0661 5.86208 12.0661 8.33975C12.0661 10.8174 10.029 12.8268 7.515 12.8268C5.00103 12.8268 2.96393 10.8174 2.96393 8.33975Z" fill="black"/>
</svg>
