<svg width="529" height="98" viewBox="0 0 529 98" fill="none" xmlns="http://www.w3.org/2000/svg">
<path d="M102.701 1.4895C69.6179 5.12376 61.9056 31.6153 61.9056 31.6153L64.303 38.3339C64.303 38.3339 73.6296 11.6241 102.701 1.4895Z" fill="white"/>
<path d="M78.7354 46.2687C86.8633 38.4474 96.0317 36.0803 96.0317 36.0803C96.0317 36.0803 104.734 33.4921 111.869 28.7551C119.008 24.0181 118.799 23.1364 120.831 20.6049C122.864 18.0706 125.363 10.5809 122.341 5.56894C119.319 0.556947 111.869 0.778065 111.869 0.778065C111.869 0.778065 117.131 3.53069 117.86 7.82831C118.589 12.1259 116.557 17.2456 113.328 20.6049C110.097 23.9642 96.501 31.6211 93.6344 32.9421C90.7677 34.2632 79.0974 39.6068 78.7327 46.2716L78.7354 46.2687Z" fill="#FAF9FE"/>
<path d="M87.5391 94.6252C104.629 95.2858 104.28 84.6381 103.656 80.1591C103.031 75.68 97.9598 67.527 91.2906 62.756C84.6215 57.9821 79.6203 53.4294 79.4111 49.316C79.202 45.2027 88.3731 41.679 88.3731 41.679C88.3731 41.679 84.3453 43.9553 83.9967 47.479C83.6481 51.0027 88.7887 55.924 96.4313 61.7978C104.074 67.6716 111.644 77.7324 111.993 84.6353C112.341 91.5381 111.159 104.023 87.5418 94.6224L87.5391 94.6252Z" fill="#FAF9FE"/>
<path d="M69.2693 68.2614C68.7142 73.4009 69.0602 78.6879 76.0082 87.2066C82.9536 95.7253 94.8331 92.2725 94.8331 92.2725C94.8331 92.2725 84.4472 91.3908 78.7354 84.5617C73.0209 77.7326 69.2693 68.2585 69.2693 68.2585V68.2614Z" fill="white"/>
<path d="M44.2178 47.0567C36.433 38.8555 27.3746 36.049 27.3746 36.049C27.3746 36.049 18.7934 33.047 11.8668 27.9726C4.94026 22.8982 5.18428 22.0279 3.26425 19.4C1.34422 16.7721 -0.835925 9.16911 2.39809 4.30736C5.63211 -0.554386 13.0628 0.021086 13.0628 0.021086C13.0628 0.021086 7.6889 2.52141 6.77448 6.77651C5.86005 11.0316 7.67281 16.2477 10.754 19.7572C13.8351 23.2668 27.093 31.5672 29.898 33.0243C32.7029 34.4814 44.1346 40.3778 44.2124 47.0539L44.2178 47.0567Z" fill="white"/>
<path d="M32.8745 93.928C15.7739 94.0584 16.4175 83.4249 17.1683 78.9685C17.9192 74.5122 23.2127 66.5208 30.0105 61.9567C36.8084 57.3926 41.9356 52.9957 42.2574 48.8937C42.5792 44.7889 33.5127 40.9817 33.5127 40.9817C33.5127 40.9817 37.4761 43.3828 37.7255 46.9178C37.9749 50.4529 32.7002 55.2097 24.8994 60.8454C17.0986 66.4811 9.24954 76.3009 8.71053 83.1924C8.17153 90.0811 9.00551 102.597 32.8745 93.9336V93.928Z" fill="white"/>
<path d="M51.855 68.9133C51.9328 74.0869 51.0988 79.3115 43.3972 87.0733C35.6956 94.8323 24.1942 90.1718 24.1942 90.1718C24.1942 90.1718 34.6123 90.3674 40.9301 84.1619C47.248 77.9565 51.8577 68.9162 51.8577 68.9162L51.855 68.9133Z" fill="white"/>
<path d="M54.6116 47.4791C54.6116 47.4791 56.5907 62.3506 60.1331 64.5533C60.1331 64.5533 64.0938 52.5478 56.2769 35.6918C48.4627 18.8387 43.0432 11.1279 24.0789 2.20386C24.0789 2.20386 50.8842 8.48303 61.136 33.3786C71.3878 58.2741 67.7408 70.1691 60.1331 88.5644C60.1331 88.5644 50.8601 65.6532 54.6116 47.4762V47.4791Z" fill="#FAF9FE"/>
<path d="M60.0311 23.0259C62.7932 23.0259 65.0323 20.6588 65.0323 17.7389C65.0323 14.819 62.7932 12.4519 60.0311 12.4519C57.269 12.4519 55.0299 14.819 55.0299 17.7389C55.0299 20.6588 57.269 23.0259 60.0311 23.0259Z" fill="white"/>
<path d="M156.593 20.136L158.213 20.172C158.861 20.172 159.365 20.208 159.725 20.28L160.697 20.424C161.201 20.496 161.645 20.676 162.029 20.964C161.837 21.972 161.045 22.476 159.653 22.476L150.113 22.188C149.081 22.188 147.845 22.236 146.405 22.332C146.453 24.948 146.477 28.488 146.477 32.952C149.213 32.712 151.493 32.592 153.317 32.592C156.845 32.592 158.609 32.94 158.609 33.636C158.609 34.524 158.057 34.968 156.953 34.968C156.569 34.968 156.149 34.932 155.693 34.86C153.869 34.644 152.285 34.536 150.941 34.536C149.597 34.536 148.097 34.632 146.441 34.824C146.393 35.616 146.333 36.876 146.261 38.604C146.189 40.308 146.129 41.448 146.081 42.024C146.057 42.6 146.033 43.008 146.009 43.248C145.985 43.488 145.949 43.776 145.901 44.112C145.877 44.448 145.829 44.724 145.757 44.94C145.709 45.156 145.637 45.384 145.541 45.624C145.397 46.008 145.133 46.296 144.749 46.488C144.629 46.536 144.521 46.56 144.425 46.56C144.113 46.56 143.765 46.464 143.381 46.272C143.381 46.008 143.381 45.252 143.381 44.004C143.381 42.756 143.489 40.104 143.705 36.048C143.921 31.968 144.029 28.884 144.029 26.796C144.029 24.708 143.981 23.016 143.885 21.72C143.885 21.144 144.473 20.736 145.649 20.496C146.945 20.232 148.181 20.1 149.357 20.1C150.557 20.076 151.469 20.064 152.093 20.064L156.593 20.136Z" fill="white"/>
<path d="M173.375 35.616L173.195 39.756C173.195 41.844 173.435 43.248 173.915 43.968C174.203 44.448 174.599 44.688 175.103 44.688C175.247 44.688 175.451 44.652 175.715 44.58C176.219 44.436 176.639 44.508 176.975 44.796C176.807 45.636 175.967 46.056 174.455 46.056C173.423 46.056 172.739 45.624 172.403 44.76C172.139 44.112 171.947 43.308 171.827 42.348C171.707 41.364 171.611 40.692 171.539 40.332C169.979 43.308 168.467 45.12 167.003 45.768C166.259 46.104 165.395 46.272 164.411 46.272C163.427 46.272 162.659 45.804 162.107 44.868C161.579 43.908 161.315 42.516 161.315 40.692C161.315 38.868 161.615 36.96 162.215 34.968C162.815 32.952 163.691 31.26 164.843 29.892C165.995 28.5 167.255 27.804 168.623 27.804C170.591 27.804 171.899 28.62 172.547 30.252C173.099 31.644 173.375 33.432 173.375 35.616ZM164.555 34.464C164.219 35.76 163.967 36.996 163.799 38.172C163.631 39.324 163.547 40.356 163.547 41.268C163.547 42.156 163.727 42.924 164.087 43.572C164.471 44.22 164.963 44.544 165.563 44.544C166.859 44.544 168.107 43.32 169.307 40.872C170.507 38.424 171.107 36.144 171.107 34.032C171.107 32.664 170.747 31.536 170.027 30.648C169.547 30.072 168.911 29.784 168.119 29.784C167.351 29.784 166.643 30.24 165.995 31.152C165.371 32.04 164.891 33.144 164.555 34.464Z" fill="white"/>
<path d="M178.603 20.1C178.891 19.572 179.419 19.308 180.187 19.308C180.355 19.308 180.523 19.332 180.691 19.38C180.739 20.652 180.763 24.204 180.763 30.036C180.787 30.012 180.895 29.904 181.087 29.712C181.303 29.52 181.435 29.4 181.483 29.352C181.531 29.304 181.651 29.196 181.843 29.028C182.035 28.836 182.179 28.716 182.275 28.668C182.395 28.596 182.551 28.5 182.743 28.38C182.935 28.236 183.103 28.14 183.247 28.092C183.391 28.02 183.559 27.948 183.751 27.876C184.111 27.756 184.531 27.696 185.011 27.696C186.787 27.696 188.215 28.44 189.295 29.928C190.375 31.392 190.915 33.036 190.915 34.86C190.915 36.684 190.639 38.424 190.087 40.08C189.535 41.712 188.683 43.14 187.531 44.364C186.379 45.588 185.035 46.2 183.499 46.2C181.987 46.2 180.715 45.636 179.683 44.508C178.675 43.38 178.171 42.096 178.171 40.656C178.171 39.192 178.255 36.504 178.423 32.592C178.591 28.656 178.675 25.836 178.675 24.132C178.675 22.404 178.651 21.06 178.603 20.1ZM183.751 44.436C184.687 44.436 185.527 43.992 186.271 43.104C187.783 41.352 188.539 38.868 188.539 35.652C188.539 33.924 188.203 32.4 187.531 31.08C186.859 29.736 185.911 29.064 184.687 29.064C183.991 29.064 183.379 29.412 182.851 30.108C182.323 30.78 181.915 31.68 181.627 32.808C181.075 34.944 180.799 37.32 180.799 39.936C180.799 42.144 181.255 43.5 182.167 44.004C182.575 44.244 183.103 44.388 183.751 44.436Z" fill="white"/>
<path d="M197.004 19.488C196.98 20.04 196.968 20.652 196.968 21.324C196.968 21.996 197.004 22.692 197.076 23.412C196.74 23.796 196.284 23.988 195.708 23.988C194.988 23.988 194.628 23.412 194.628 22.26C194.628 22.212 194.628 22.032 194.628 21.72C194.628 21.408 194.628 21.132 194.628 20.892C194.652 20.628 194.7 20.328 194.772 19.992C194.94 19.416 195.312 19.128 195.888 19.128C196.464 19.128 196.836 19.248 197.004 19.488ZM194.7 37.128C194.7 32.424 194.94 29.712 195.42 28.992C195.588 28.728 195.792 28.596 196.032 28.596C196.272 28.596 196.668 28.728 197.22 28.992C197.1 31.032 197.04 33.252 197.04 35.652C197.04 35.652 197.064 38.304 197.112 43.608C197.112 44.352 196.944 44.88 196.608 45.192C196.296 45.48 195.996 45.624 195.708 45.624C195.444 45.624 195.168 45.552 194.88 45.408C194.76 42.288 194.7 39.528 194.7 37.128Z" fill="white"/>
<path d="M203.491 38.676C203.443 39.156 203.419 39.48 203.419 39.648C203.419 41.088 203.851 42.204 204.715 42.996C205.603 43.788 206.647 44.184 207.847 44.184C209.047 44.184 210.019 44.016 210.763 43.68C211.531 43.344 212.083 42.984 212.419 42.6C213.283 41.52 214.075 40.98 214.795 40.98C215.059 40.98 215.371 41.052 215.731 41.196C215.491 42.372 214.579 43.452 212.995 44.436C211.435 45.396 209.467 45.876 207.091 45.876C205.411 45.876 203.959 45.348 202.735 44.292C201.535 43.212 200.935 41.748 200.935 39.9C200.935 38.052 201.295 36.264 202.015 34.536C202.759 32.784 203.815 31.296 205.183 30.072C206.575 28.824 207.979 28.2 209.395 28.2C210.835 28.2 211.987 28.5 212.851 29.1C213.739 29.676 214.183 30.528 214.183 31.656C214.183 33.744 213.247 35.472 211.375 36.84C209.527 38.184 207.559 38.856 205.471 38.856C204.919 38.856 204.259 38.796 203.491 38.676ZM206.227 37.488C207.355 37.488 208.363 37.128 209.251 36.408C210.139 35.688 210.763 34.932 211.123 34.14C211.507 33.348 211.699 32.628 211.699 31.98C211.699 31.332 211.447 30.768 210.943 30.288C210.439 29.784 209.851 29.532 209.179 29.532C207.979 29.532 206.863 30.36 205.831 32.016C204.823 33.672 204.103 35.388 203.671 37.164C204.727 37.38 205.579 37.488 206.227 37.488Z" fill="white"/>
<path d="M233.467 44.976C233.035 45.432 232.543 45.66 231.991 45.66C230.959 45.66 230.191 45.108 229.687 44.004C229.183 42.9 228.883 41.556 228.787 39.972C228.715 38.388 228.667 36.804 228.643 35.22C228.619 33.636 228.487 32.292 228.247 31.188C228.031 30.084 227.611 29.532 226.987 29.532C226.147 29.532 225.427 30.288 224.827 31.8C224.251 33.312 223.843 34.992 223.603 36.84C222.931 42 222.283 44.892 221.659 45.516C221.227 45.732 220.855 45.84 220.543 45.84C220.231 45.84 219.967 45.804 219.751 45.732C219.247 43.524 218.923 39.72 218.779 34.32C218.731 31.632 218.683 29.892 218.635 29.1C219.139 28.764 219.571 28.596 219.931 28.596C220.291 28.596 220.579 28.632 220.795 28.704C220.915 29.736 220.975 31.848 220.975 35.04C220.999 38.232 221.023 40.068 221.047 40.548C221.167 40.044 221.311 39.228 221.479 38.1C221.671 36.972 221.839 36.048 221.983 35.328C222.127 34.584 222.355 33.72 222.667 32.736C222.979 31.752 223.327 30.972 223.711 30.396C224.095 29.796 224.623 29.292 225.295 28.884C225.967 28.452 226.723 28.236 227.563 28.236C228.691 28.236 229.507 28.752 230.011 29.784C230.539 30.792 230.827 32.052 230.875 33.564C230.923 35.076 230.947 36.612 230.947 38.172C230.971 39.732 231.163 41.16 231.523 42.456C231.907 43.752 232.555 44.592 233.467 44.976Z" fill="white"/>
<path d="M250.588 44.976C250.156 45.432 249.664 45.66 249.112 45.66C248.08 45.66 247.312 45.108 246.808 44.004C246.304 42.9 246.004 41.556 245.908 39.972C245.836 38.388 245.788 36.804 245.764 35.22C245.74 33.636 245.608 32.292 245.368 31.188C245.152 30.084 244.732 29.532 244.108 29.532C243.268 29.532 242.548 30.288 241.948 31.8C241.372 33.312 240.964 34.992 240.724 36.84C240.052 42 239.404 44.892 238.78 45.516C238.348 45.732 237.976 45.84 237.664 45.84C237.352 45.84 237.088 45.804 236.872 45.732C236.368 43.524 236.044 39.72 235.9 34.32C235.852 31.632 235.804 29.892 235.756 29.1C236.26 28.764 236.692 28.596 237.052 28.596C237.412 28.596 237.7 28.632 237.916 28.704C238.036 29.736 238.096 31.848 238.096 35.04C238.12 38.232 238.144 40.068 238.168 40.548C238.288 40.044 238.432 39.228 238.6 38.1C238.792 36.972 238.96 36.048 239.104 35.328C239.248 34.584 239.476 33.72 239.788 32.736C240.1 31.752 240.448 30.972 240.832 30.396C241.216 29.796 241.744 29.292 242.416 28.884C243.088 28.452 243.844 28.236 244.684 28.236C245.812 28.236 246.628 28.752 247.132 29.784C247.66 30.792 247.948 32.052 247.996 33.564C248.044 35.076 248.068 36.612 248.068 38.172C248.092 39.732 248.284 41.16 248.644 42.456C249.028 43.752 249.676 44.592 250.588 44.976Z" fill="white"/>
<path d="M254.749 38.676C254.701 39.156 254.677 39.48 254.677 39.648C254.677 41.088 255.109 42.204 255.973 42.996C256.861 43.788 257.905 44.184 259.105 44.184C260.305 44.184 261.277 44.016 262.021 43.68C262.789 43.344 263.341 42.984 263.677 42.6C264.541 41.52 265.333 40.98 266.053 40.98C266.317 40.98 266.629 41.052 266.989 41.196C266.749 42.372 265.837 43.452 264.253 44.436C262.693 45.396 260.725 45.876 258.349 45.876C256.669 45.876 255.217 45.348 253.993 44.292C252.793 43.212 252.193 41.748 252.193 39.9C252.193 38.052 252.553 36.264 253.273 34.536C254.017 32.784 255.073 31.296 256.441 30.072C257.833 28.824 259.237 28.2 260.653 28.2C262.093 28.2 263.245 28.5 264.109 29.1C264.997 29.676 265.441 30.528 265.441 31.656C265.441 33.744 264.505 35.472 262.633 36.84C260.785 38.184 258.817 38.856 256.729 38.856C256.177 38.856 255.517 38.796 254.749 38.676ZM257.485 37.488C258.613 37.488 259.621 37.128 260.509 36.408C261.397 35.688 262.021 34.932 262.381 34.14C262.765 33.348 262.957 32.628 262.957 31.98C262.957 31.332 262.705 30.768 262.201 30.288C261.697 29.784 261.109 29.532 260.437 29.532C259.237 29.532 258.121 30.36 257.089 32.016C256.081 33.672 255.361 35.388 254.929 37.164C255.985 37.38 256.837 37.488 257.485 37.488Z" fill="white"/>
<path d="M279.094 43.752L278.806 22.692C278.806 21.156 281.914 20.388 288.13 20.388C291.058 20.388 293.506 20.94 295.474 22.044C297.466 23.148 298.462 24.732 298.462 26.796C298.462 28.164 297.934 29.46 296.878 30.684C295.822 31.908 294.634 32.688 293.314 33.024C294.97 33.528 296.398 34.26 297.598 35.22C298.822 36.18 299.434 37.428 299.434 38.964C299.434 40.5 298.774 41.856 297.454 43.032C294.91 45.264 290.998 46.38 285.718 46.38C281.302 46.38 279.094 45.504 279.094 43.752ZM281.434 33.132C282.922 32.556 284.566 32.268 286.366 32.268C287.206 32.268 288.046 32.268 288.886 32.268C290.158 32.268 291.694 31.704 293.494 30.576C295.318 29.424 296.23 28.332 296.23 27.3C296.23 25.764 295.27 24.552 293.35 23.664C291.43 22.752 289.306 22.296 286.978 22.296C284.65 22.296 282.766 22.56 281.326 23.088C281.326 23.52 281.326 24.156 281.326 24.996C281.326 25.812 281.338 27.18 281.362 29.1C281.41 30.996 281.434 32.34 281.434 33.132ZM296.806 38.964C296.806 36.876 294.55 35.352 290.038 34.392C287.734 35.064 285.55 35.4 283.486 35.4C282.814 35.4 282.154 35.364 281.506 35.292C281.578 38.148 281.614 41.052 281.614 44.004C283.006 44.316 284.41 44.472 285.826 44.472C287.266 44.472 288.538 44.388 289.642 44.22C290.77 44.028 291.886 43.74 292.99 43.356C294.118 42.972 295.03 42.396 295.726 41.628C296.446 40.86 296.806 39.972 296.806 38.964Z" fill="white"/>
<path d="M304.34 31.044C305.564 29.172 307.328 28.236 309.632 28.236C311.936 28.236 313.772 29.172 315.14 31.044C316.532 32.916 317.228 35.052 317.228 37.452C317.228 39.828 316.472 41.844 314.96 43.5C313.448 45.156 311.528 45.984 309.2 45.984C306.872 45.984 305.18 45.336 304.124 44.04C303.068 42.72 302.54 40.872 302.54 38.496C302.54 35.4 303.14 32.916 304.34 31.044ZM305.924 32.952C305.612 33.888 305.372 34.824 305.204 35.76C305.06 36.696 304.988 37.572 304.988 38.388C304.988 39.18 305.048 39.912 305.168 40.584C305.288 41.232 305.492 41.88 305.78 42.528C306.068 43.152 306.5 43.656 307.076 44.04C307.652 44.4 308.336 44.58 309.128 44.58C310.736 44.58 312.08 43.92 313.16 42.6C314.264 41.28 314.816 39.684 314.816 37.812C314.816 35.94 314.312 34.128 313.304 32.376C312.32 30.6 311.108 29.712 309.668 29.712C308.804 29.712 308.048 30.012 307.4 30.612C306.752 31.212 306.26 31.992 305.924 32.952Z" fill="white"/>
<path d="M321.953 24.456C321.953 22.08 321.629 20.484 320.981 19.668C321.293 19.212 321.833 18.984 322.601 18.984C322.745 18.984 322.901 18.996 323.069 19.02C323.669 19.62 323.969 21.36 323.969 24.24C323.969 25.8 323.897 27.612 323.753 29.676C323.465 33.276 323.321 35.916 323.321 37.596C323.321 42.132 324.197 44.4 325.949 44.4C325.949 44.4 326.393 44.316 327.281 44.148C327.497 44.148 327.677 44.244 327.821 44.436C327.749 45.3 327.041 45.732 325.697 45.732C324.377 45.732 323.357 45.336 322.637 44.544C321.917 43.728 321.461 42.72 321.269 41.52C321.101 40.296 321.017 39.288 321.017 38.496C321.017 37.704 321.029 36.84 321.053 35.904C321.077 34.944 321.185 33.576 321.377 31.8C321.761 28.2 321.953 25.752 321.953 24.456Z" fill="white"/>
<path d="M330.531 24.456C330.531 22.08 330.207 20.484 329.559 19.668C329.871 19.212 330.411 18.984 331.179 18.984C331.323 18.984 331.479 18.996 331.647 19.02C332.247 19.62 332.547 21.36 332.547 24.24C332.547 25.8 332.475 27.612 332.331 29.676C332.043 33.276 331.899 35.916 331.899 37.596C331.899 42.132 332.775 44.4 334.527 44.4C334.527 44.4 334.971 44.316 335.859 44.148C336.075 44.148 336.255 44.244 336.399 44.436C336.327 45.3 335.619 45.732 334.275 45.732C332.955 45.732 331.935 45.336 331.215 44.544C330.495 43.728 330.039 42.72 329.847 41.52C329.679 40.296 329.595 39.288 329.595 38.496C329.595 37.704 329.607 36.84 329.631 35.904C329.655 34.944 329.763 33.576 329.955 31.8C330.339 28.2 330.531 25.752 330.531 24.456Z" fill="white"/>
<path d="M349.297 35.616L349.117 39.756C349.117 41.844 349.357 43.248 349.837 43.968C350.125 44.448 350.521 44.688 351.025 44.688C351.169 44.688 351.373 44.652 351.637 44.58C352.141 44.436 352.561 44.508 352.897 44.796C352.729 45.636 351.889 46.056 350.377 46.056C349.345 46.056 348.661 45.624 348.325 44.76C348.061 44.112 347.869 43.308 347.749 42.348C347.629 41.364 347.533 40.692 347.461 40.332C345.901 43.308 344.389 45.12 342.925 45.768C342.181 46.104 341.317 46.272 340.333 46.272C339.349 46.272 338.581 45.804 338.029 44.868C337.501 43.908 337.237 42.516 337.237 40.692C337.237 38.868 337.537 36.96 338.137 34.968C338.737 32.952 339.613 31.26 340.765 29.892C341.917 28.5 343.177 27.804 344.545 27.804C346.513 27.804 347.821 28.62 348.469 30.252C349.021 31.644 349.297 33.432 349.297 35.616ZM340.477 34.464C340.141 35.76 339.889 36.996 339.721 38.172C339.553 39.324 339.469 40.356 339.469 41.268C339.469 42.156 339.649 42.924 340.009 43.572C340.393 44.22 340.885 44.544 341.485 44.544C342.781 44.544 344.029 43.32 345.229 40.872C346.429 38.424 347.029 36.144 347.029 34.032C347.029 32.664 346.669 31.536 345.949 30.648C345.469 30.072 344.833 29.784 344.041 29.784C343.273 29.784 342.565 30.24 341.917 31.152C341.293 32.04 340.813 33.144 340.477 34.464Z" fill="white"/>
<path d="M357.621 42.456L357.729 44.508C357.729 45.036 357.573 45.408 357.261 45.624C356.973 45.816 356.673 45.912 356.361 45.912C356.073 45.912 355.773 45.864 355.461 45.768C354.933 42.984 354.525 39.516 354.237 35.364C353.973 31.212 353.817 28.86 353.769 28.308C354.129 27.972 354.501 27.804 354.885 27.804C355.293 27.804 355.653 27.852 355.965 27.948C356.061 28.644 356.133 30.18 356.181 32.556C356.229 34.932 356.289 36.42 356.361 37.02C356.697 35.004 357.297 33.12 358.161 31.368C358.641 30.384 359.265 29.604 360.033 29.028C360.825 28.428 361.665 28.128 362.553 28.128C363.465 28.128 364.293 28.536 365.037 29.352C365.805 30.144 366.189 30.864 366.189 31.512C366.189 31.752 366.045 31.944 365.757 32.088C365.469 32.208 365.145 32.268 364.785 32.268C364.449 32.268 364.185 32.136 363.993 31.872C363.801 31.608 363.669 31.32 363.597 31.008C363.525 30.672 363.369 30.372 363.129 30.108C362.889 29.844 362.565 29.712 362.157 29.712C361.077 29.712 360.153 30.684 359.385 32.628C358.209 35.532 357.621 38.808 357.621 42.456Z" fill="white"/>
<path d="M381.797 17.148C380.885 25.404 380.429 31.296 380.429 34.824C380.429 38.328 380.753 41.832 381.401 45.336C380.921 45.816 380.501 46.056 380.141 46.056C379.781 46.056 379.481 46.008 379.241 45.912C378.737 44.136 378.437 42.204 378.341 40.116C377.765 41.028 377.333 41.676 377.045 42.06C376.781 42.444 376.313 43.008 375.641 43.752C374.417 45.192 372.965 45.912 371.285 45.912C370.013 45.912 369.089 45.324 368.513 44.148C367.961 42.948 367.685 41.424 367.685 39.576C367.685 37.704 367.889 35.928 368.297 34.248C368.729 32.544 369.461 31.08 370.493 29.856C371.525 28.608 372.797 27.984 374.309 27.984C375.221 27.984 376.061 28.176 376.829 28.56C377.597 28.944 378.125 29.46 378.413 30.108C378.461 29.46 378.509 28.464 378.557 27.12C378.605 25.776 378.653 24.588 378.701 23.556C378.773 22.5 378.881 21.432 379.025 20.352C379.289 18.048 379.877 16.896 380.789 16.896C381.101 16.896 381.437 16.98 381.797 17.148ZM377.585 31.404C377.297 30.876 376.901 30.492 376.397 30.252C375.893 29.988 375.221 29.856 374.381 29.856C373.565 29.856 372.797 30.324 372.077 31.26C370.661 33.108 369.953 35.784 369.953 39.288C369.953 40.416 370.133 41.544 370.493 42.672C370.853 43.776 371.381 44.328 372.077 44.328C373.085 44.328 374.069 43.668 375.029 42.348C375.989 41.028 376.733 39.516 377.261 37.812C377.789 36.084 378.053 34.536 378.053 33.168C378.053 32.52 377.897 31.932 377.585 31.404Z" fill="white"/>
<path d="M144.565 73.024H151.765V74.724H144.565V73.024ZM144.745 79.244H152.905V80.984H142.745V66.984H152.625V68.724H144.745V79.244ZM146.205 65.844L148.925 63.244H151.365L148.005 65.844H146.205Z" fill="white"/>
<path d="M160.106 81.104C159.08 81.104 158.16 80.8773 157.346 80.424C156.546 79.9707 155.913 79.3373 155.446 78.524C154.98 77.7107 154.746 76.764 154.746 75.684C154.746 74.604 154.98 73.664 155.446 72.864C155.913 72.0507 156.546 71.4173 157.346 70.964C158.16 70.5107 159.08 70.284 160.106 70.284C161 70.284 161.806 70.484 162.526 70.884C163.246 71.284 163.82 71.884 164.246 72.684C164.686 73.484 164.906 74.484 164.906 75.684C164.906 76.884 164.693 77.884 164.266 78.684C163.853 79.484 163.286 80.0907 162.566 80.504C161.846 80.904 161.026 81.104 160.106 81.104ZM160.266 79.424C160.933 79.424 161.533 79.2707 162.066 78.964C162.613 78.6573 163.04 78.224 163.346 77.664C163.666 77.0907 163.826 76.4307 163.826 75.684C163.826 74.924 163.666 74.2707 163.346 73.724C163.04 73.164 162.613 72.7307 162.066 72.424C161.533 72.1173 160.933 71.964 160.266 71.964C159.586 71.964 158.98 72.1173 158.446 72.424C157.913 72.7307 157.486 73.164 157.166 73.724C156.846 74.2707 156.686 74.924 156.686 75.684C156.686 76.4307 156.846 77.0907 157.166 77.664C157.486 78.224 157.913 78.6573 158.446 78.964C158.98 79.2707 159.586 79.424 160.266 79.424ZM163.886 80.984V78.124L164.006 75.664L163.806 73.204V66.144H165.726V80.984H163.886Z" fill="white"/>
<path d="M173.819 81.104C172.912 81.104 172.112 80.9373 171.419 80.604C170.739 80.2707 170.206 79.764 169.819 79.084C169.446 78.3907 169.259 77.524 169.259 76.484V70.384H171.179V76.264C171.179 77.304 171.426 78.084 171.919 78.604C172.426 79.124 173.132 79.384 174.039 79.384C174.706 79.384 175.286 79.2507 175.779 78.984C176.272 78.704 176.652 78.304 176.919 77.784C177.186 77.2507 177.319 76.6107 177.319 75.864V70.384H179.239V80.984H177.419V78.124L177.719 78.884C177.372 79.5907 176.852 80.1373 176.159 80.524C175.466 80.9107 174.686 81.104 173.819 81.104Z" fill="white"/>
<path d="M187.514 81.104C186.434 81.104 185.468 80.8707 184.614 80.404C183.774 79.9373 183.114 79.2973 182.634 78.484C182.154 77.6707 181.914 76.7373 181.914 75.684C181.914 74.6307 182.154 73.6973 182.634 72.884C183.114 72.0707 183.774 71.4373 184.614 70.984C185.468 70.5173 186.434 70.284 187.514 70.284C188.474 70.284 189.328 70.4773 190.074 70.864C190.834 71.2373 191.421 71.7973 191.834 72.544L190.374 73.484C190.028 72.964 189.601 72.584 189.094 72.344C188.601 72.0907 188.068 71.964 187.494 71.964C186.801 71.964 186.181 72.1173 185.634 72.424C185.088 72.7307 184.654 73.164 184.334 73.724C184.014 74.2707 183.854 74.924 183.854 75.684C183.854 76.444 184.014 77.104 184.334 77.664C184.654 78.224 185.088 78.6573 185.634 78.964C186.181 79.2707 186.801 79.424 187.494 79.424C188.068 79.424 188.601 79.304 189.094 79.064C189.601 78.8107 190.028 78.424 190.374 77.904L191.834 78.824C191.421 79.5573 190.834 80.124 190.074 80.524C189.328 80.9107 188.474 81.104 187.514 81.104Z" fill="white"/>
<path d="M200.9 80.984V78.744L200.8 78.324V74.504C200.8 73.6907 200.56 73.064 200.08 72.624C199.613 72.1707 198.907 71.944 197.96 71.944C197.333 71.944 196.72 72.0507 196.12 72.264C195.52 72.464 195.013 72.7373 194.6 73.084L193.8 71.644C194.347 71.204 195 70.8707 195.76 70.644C196.533 70.404 197.34 70.284 198.18 70.284C199.633 70.284 200.753 70.6373 201.54 71.344C202.327 72.0507 202.72 73.1307 202.72 74.584V80.984H200.9ZM197.42 81.104C196.633 81.104 195.94 80.9707 195.34 80.704C194.753 80.4373 194.3 80.0707 193.98 79.604C193.66 79.124 193.5 78.584 193.5 77.984C193.5 77.4107 193.633 76.8907 193.9 76.424C194.18 75.9573 194.627 75.584 195.24 75.304C195.867 75.024 196.707 74.884 197.76 74.884H201.12V76.264H197.84C196.88 76.264 196.233 76.424 195.9 76.744C195.567 77.064 195.4 77.4507 195.4 77.904C195.4 78.424 195.607 78.844 196.02 79.164C196.433 79.4707 197.007 79.624 197.74 79.624C198.46 79.624 199.087 79.464 199.62 79.144C200.167 78.824 200.56 78.3573 200.8 77.744L201.18 79.064C200.927 79.6907 200.48 80.1907 199.84 80.564C199.2 80.924 198.393 81.104 197.42 81.104Z" fill="white"/>
<path d="M209.913 81.104C208.846 81.104 208.02 80.8173 207.433 80.244C206.846 79.6707 206.553 78.8507 206.553 77.784V68.064H208.473V77.704C208.473 78.2773 208.613 78.7173 208.893 79.024C209.186 79.3307 209.6 79.484 210.133 79.484C210.733 79.484 211.233 79.3173 211.633 78.984L212.233 80.364C211.94 80.6173 211.586 80.804 211.173 80.924C210.773 81.044 210.353 81.104 209.913 81.104ZM204.753 71.964V70.384H211.513V71.964H204.753Z" fill="white"/>
<path d="M214.554 80.984V70.384H216.474V80.984H214.554ZM215.514 68.344C215.141 68.344 214.828 68.224 214.574 67.984C214.334 67.744 214.214 67.4507 214.214 67.104C214.214 66.744 214.334 66.444 214.574 66.204C214.828 65.964 215.141 65.844 215.514 65.844C215.888 65.844 216.194 65.964 216.434 66.204C216.688 66.4307 216.814 66.7173 216.814 67.064C216.814 67.424 216.694 67.7307 216.454 67.984C216.214 68.224 215.901 68.344 215.514 68.344Z" fill="white"/>
<path d="M224.68 81.104C223.614 81.104 222.667 80.8707 221.84 80.404C221.014 79.9373 220.36 79.2973 219.88 78.484C219.4 77.6573 219.16 76.724 219.16 75.684C219.16 74.6307 219.4 73.6973 219.88 72.884C220.36 72.0707 221.014 71.4373 221.84 70.984C222.667 70.5173 223.614 70.284 224.68 70.284C225.734 70.284 226.674 70.5173 227.5 70.984C228.34 71.4373 228.994 72.0707 229.46 72.884C229.94 73.684 230.18 74.6173 230.18 75.684C230.18 76.7373 229.94 77.6707 229.46 78.484C228.994 79.2973 228.34 79.9373 227.5 80.404C226.674 80.8707 225.734 81.104 224.68 81.104ZM224.68 79.424C225.36 79.424 225.967 79.2707 226.5 78.964C227.047 78.6573 227.474 78.224 227.78 77.664C228.087 77.0907 228.24 76.4307 228.24 75.684C228.24 74.924 228.087 74.2707 227.78 73.724C227.474 73.164 227.047 72.7307 226.5 72.424C225.967 72.1173 225.36 71.964 224.68 71.964C224 71.964 223.394 72.1173 222.86 72.424C222.327 72.7307 221.9 73.164 221.58 73.724C221.26 74.2707 221.1 74.924 221.1 75.684C221.1 76.4307 221.26 77.0907 221.58 77.664C221.9 78.224 222.327 78.6573 222.86 78.964C223.394 79.2707 224 79.424 224.68 79.424Z" fill="white"/>
<path d="M238.496 70.284C239.362 70.284 240.122 70.4507 240.776 70.784C241.442 71.1173 241.962 71.624 242.336 72.304C242.709 72.984 242.896 73.844 242.896 74.884V80.984H240.976V75.104C240.976 74.0773 240.722 73.304 240.216 72.784C239.722 72.264 239.022 72.004 238.116 72.004C237.436 72.004 236.842 72.1373 236.336 72.404C235.829 72.6707 235.436 73.064 235.156 73.584C234.889 74.104 234.756 74.7507 234.756 75.524V80.984H232.836V70.384H234.676V73.244L234.376 72.484C234.722 71.7907 235.256 71.2507 235.976 70.864C236.696 70.4773 237.536 70.284 238.496 70.284Z" fill="white"/>
<path d="M252.1 80.984V66.984H253.74L263 78.484H262.14V66.984H264.14V80.984H262.5L253.24 69.484H254.1V80.984H252.1Z" fill="white"/>
<path d="M272.77 81.104C271.637 81.104 270.637 80.8707 269.77 80.404C268.917 79.9373 268.25 79.2973 267.77 78.484C267.304 77.6707 267.07 76.7373 267.07 75.684C267.07 74.6307 267.297 73.6973 267.75 72.884C268.217 72.0707 268.85 71.4373 269.65 70.984C270.464 70.5173 271.377 70.284 272.39 70.284C273.417 70.284 274.324 70.5107 275.11 70.964C275.897 71.4173 276.51 72.0573 276.95 72.884C277.404 73.6973 277.63 74.6507 277.63 75.744C277.63 75.824 277.624 75.9173 277.61 76.024C277.61 76.1307 277.604 76.2307 277.59 76.324H268.57V74.944H276.59L275.81 75.424C275.824 74.744 275.684 74.1373 275.39 73.604C275.097 73.0707 274.69 72.6573 274.17 72.364C273.664 72.0573 273.07 71.904 272.39 71.904C271.724 71.904 271.13 72.0573 270.61 72.364C270.09 72.6573 269.684 73.0773 269.39 73.624C269.097 74.1573 268.95 74.7707 268.95 75.464V75.784C268.95 76.4907 269.11 77.124 269.43 77.684C269.764 78.2307 270.224 78.6573 270.81 78.964C271.397 79.2707 272.07 79.424 272.83 79.424C273.457 79.424 274.024 79.3173 274.53 79.104C275.05 78.8907 275.504 78.5707 275.89 78.144L276.95 79.384C276.47 79.944 275.87 80.3707 275.15 80.664C274.444 80.9573 273.65 81.104 272.77 81.104Z" fill="white"/>
<path d="M284.757 81.104C283.85 81.104 283.05 80.9373 282.357 80.604C281.677 80.2707 281.143 79.764 280.757 79.084C280.383 78.3907 280.197 77.524 280.197 76.484V70.384H282.117V76.264C282.117 77.304 282.363 78.084 282.857 78.604C283.363 79.124 284.07 79.384 284.977 79.384C285.643 79.384 286.223 79.2507 286.717 78.984C287.21 78.704 287.59 78.304 287.857 77.784C288.123 77.2507 288.257 76.6107 288.257 75.864V70.384H290.177V80.984H288.357V78.124L288.657 78.884C288.31 79.5907 287.79 80.1373 287.097 80.524C286.403 80.9107 285.623 81.104 284.757 81.104Z" fill="white"/>
<path d="M293.832 80.984V70.384H295.672V73.264L295.492 72.544C295.785 71.8107 296.278 71.2507 296.972 70.864C297.665 70.4773 298.518 70.284 299.532 70.284V72.144C299.452 72.1307 299.372 72.124 299.292 72.124C299.225 72.124 299.158 72.124 299.092 72.124C298.065 72.124 297.252 72.4307 296.652 73.044C296.052 73.6573 295.752 74.544 295.752 75.704V80.984H293.832Z" fill="white"/>
<path d="M306.34 81.104C305.274 81.104 304.327 80.8707 303.5 80.404C302.674 79.9373 302.02 79.2973 301.54 78.484C301.06 77.6573 300.82 76.724 300.82 75.684C300.82 74.6307 301.06 73.6973 301.54 72.884C302.02 72.0707 302.674 71.4373 303.5 70.984C304.327 70.5173 305.274 70.284 306.34 70.284C307.394 70.284 308.334 70.5173 309.16 70.984C310 71.4373 310.654 72.0707 311.12 72.884C311.6 73.684 311.84 74.6173 311.84 75.684C311.84 76.7373 311.6 77.6707 311.12 78.484C310.654 79.2973 310 79.9373 309.16 80.404C308.334 80.8707 307.394 81.104 306.34 81.104ZM306.34 79.424C307.02 79.424 307.627 79.2707 308.16 78.964C308.707 78.6573 309.134 78.224 309.44 77.664C309.747 77.0907 309.9 76.4307 309.9 75.684C309.9 74.924 309.747 74.2707 309.44 73.724C309.134 73.164 308.707 72.7307 308.16 72.424C307.627 72.1173 307.02 71.964 306.34 71.964C305.66 71.964 305.054 72.1173 304.52 72.424C303.987 72.7307 303.56 73.164 303.24 73.724C302.92 74.2707 302.76 74.924 302.76 75.684C302.76 76.4307 302.92 77.0907 303.24 77.664C303.56 78.224 303.987 78.6573 304.52 78.964C305.054 79.2707 305.66 79.424 306.34 79.424Z" fill="white"/>
<path d="M317.536 81.104C316.656 81.104 315.816 80.984 315.016 80.744C314.229 80.504 313.609 80.2107 313.156 79.864L313.956 78.344C314.409 78.6507 314.969 78.9107 315.636 79.124C316.302 79.3373 316.982 79.444 317.676 79.444C318.569 79.444 319.209 79.3173 319.596 79.064C319.996 78.8107 320.196 78.4573 320.196 78.004C320.196 77.6707 320.076 77.4107 319.836 77.224C319.596 77.0373 319.276 76.8973 318.876 76.804C318.489 76.7107 318.056 76.6307 317.576 76.564C317.096 76.484 316.616 76.3907 316.136 76.284C315.656 76.164 315.216 76.004 314.816 75.804C314.416 75.5907 314.096 75.304 313.856 74.944C313.616 74.5707 313.496 74.0773 313.496 73.464C313.496 72.824 313.676 72.264 314.036 71.784C314.396 71.304 314.902 70.9373 315.556 70.684C316.222 70.4173 317.009 70.284 317.916 70.284C318.609 70.284 319.309 70.3707 320.016 70.544C320.736 70.704 321.322 70.9373 321.776 71.244L320.956 72.764C320.476 72.444 319.976 72.224 319.456 72.104C318.936 71.984 318.416 71.924 317.896 71.924C317.056 71.924 316.429 72.064 316.016 72.344C315.602 72.6107 315.396 72.9573 315.396 73.384C315.396 73.744 315.516 74.024 315.756 74.224C316.009 74.4107 316.329 74.5573 316.716 74.664C317.116 74.7707 317.556 74.864 318.036 74.944C318.516 75.0107 318.996 75.104 319.476 75.224C319.956 75.3307 320.389 75.484 320.776 75.684C321.176 75.884 321.496 76.164 321.736 76.524C321.989 76.884 322.116 77.364 322.116 77.964C322.116 78.604 321.929 79.1573 321.556 79.624C321.182 80.0907 320.656 80.4573 319.976 80.724C319.296 80.9773 318.482 81.104 317.536 81.104Z" fill="white"/>
<path d="M329.235 81.104C328.102 81.104 327.102 80.8707 326.235 80.404C325.382 79.9373 324.715 79.2973 324.235 78.484C323.769 77.6707 323.535 76.7373 323.535 75.684C323.535 74.6307 323.762 73.6973 324.215 72.884C324.682 72.0707 325.315 71.4373 326.115 70.984C326.929 70.5173 327.842 70.284 328.855 70.284C329.882 70.284 330.789 70.5107 331.575 70.964C332.362 71.4173 332.975 72.0573 333.415 72.884C333.869 73.6973 334.095 74.6507 334.095 75.744C334.095 75.824 334.089 75.9173 334.075 76.024C334.075 76.1307 334.069 76.2307 334.055 76.324H325.035V74.944H333.055L332.275 75.424C332.289 74.744 332.149 74.1373 331.855 73.604C331.562 73.0707 331.155 72.6573 330.635 72.364C330.129 72.0573 329.535 71.904 328.855 71.904C328.189 71.904 327.595 72.0573 327.075 72.364C326.555 72.6573 326.149 73.0773 325.855 73.624C325.562 74.1573 325.415 74.7707 325.415 75.464V75.784C325.415 76.4907 325.575 77.124 325.895 77.684C326.229 78.2307 326.689 78.6573 327.275 78.964C327.862 79.2707 328.535 79.424 329.295 79.424C329.922 79.424 330.489 79.3173 330.995 79.104C331.515 78.8907 331.969 78.5707 332.355 78.144L333.415 79.384C332.935 79.944 332.335 80.3707 331.615 80.664C330.909 80.9573 330.115 81.104 329.235 81.104Z" fill="white"/>
<path d="M342.421 70.284C343.288 70.284 344.048 70.4507 344.701 70.784C345.368 71.1173 345.888 71.624 346.261 72.304C346.635 72.984 346.821 73.844 346.821 74.884V80.984H344.901V75.104C344.901 74.0773 344.648 73.304 344.141 72.784C343.648 72.264 342.948 72.004 342.041 72.004C341.361 72.004 340.768 72.1373 340.261 72.404C339.755 72.6707 339.361 73.064 339.081 73.584C338.815 74.104 338.681 74.7507 338.681 75.524V80.984H336.761V70.384H338.601V73.244L338.301 72.484C338.648 71.7907 339.181 71.2507 339.901 70.864C340.621 70.4773 341.461 70.284 342.421 70.284Z" fill="white"/>
<path d="M353.415 81.104C352.535 81.104 351.695 80.984 350.895 80.744C350.108 80.504 349.488 80.2107 349.035 79.864L349.835 78.344C350.288 78.6507 350.848 78.9107 351.515 79.124C352.181 79.3373 352.861 79.444 353.555 79.444C354.448 79.444 355.088 79.3173 355.475 79.064C355.875 78.8107 356.075 78.4573 356.075 78.004C356.075 77.6707 355.955 77.4107 355.715 77.224C355.475 77.0373 355.155 76.8973 354.755 76.804C354.368 76.7107 353.935 76.6307 353.455 76.564C352.975 76.484 352.495 76.3907 352.015 76.284C351.535 76.164 351.095 76.004 350.695 75.804C350.295 75.5907 349.975 75.304 349.735 74.944C349.495 74.5707 349.375 74.0773 349.375 73.464C349.375 72.824 349.555 72.264 349.915 71.784C350.275 71.304 350.781 70.9373 351.435 70.684C352.101 70.4173 352.888 70.284 353.795 70.284C354.488 70.284 355.188 70.3707 355.895 70.544C356.615 70.704 357.201 70.9373 357.655 71.244L356.835 72.764C356.355 72.444 355.855 72.224 355.335 72.104C354.815 71.984 354.295 71.924 353.775 71.924C352.935 71.924 352.308 72.064 351.895 72.344C351.481 72.6107 351.275 72.9573 351.275 73.384C351.275 73.744 351.395 74.024 351.635 74.224C351.888 74.4107 352.208 74.5573 352.595 74.664C352.995 74.7707 353.435 74.864 353.915 74.944C354.395 75.0107 354.875 75.104 355.355 75.224C355.835 75.3307 356.268 75.484 356.655 75.684C357.055 75.884 357.375 76.164 357.615 76.524C357.868 76.884 357.995 77.364 357.995 77.964C357.995 78.604 357.808 79.1573 357.435 79.624C357.061 80.0907 356.535 80.4573 355.855 80.724C355.175 80.9773 354.361 81.104 353.415 81.104Z" fill="white"/>
<path d="M364.934 81.104C363.868 81.104 362.921 80.8707 362.094 80.404C361.268 79.9373 360.614 79.2973 360.134 78.484C359.654 77.6573 359.414 76.724 359.414 75.684C359.414 74.6307 359.654 73.6973 360.134 72.884C360.614 72.0707 361.268 71.4373 362.094 70.984C362.921 70.5173 363.868 70.284 364.934 70.284C365.988 70.284 366.928 70.5173 367.754 70.984C368.594 71.4373 369.248 72.0707 369.714 72.884C370.194 73.684 370.434 74.6173 370.434 75.684C370.434 76.7373 370.194 77.6707 369.714 78.484C369.248 79.2973 368.594 79.9373 367.754 80.404C366.928 80.8707 365.988 81.104 364.934 81.104ZM364.934 79.424C365.614 79.424 366.221 79.2707 366.754 78.964C367.301 78.6573 367.728 78.224 368.034 77.664C368.341 77.0907 368.494 76.4307 368.494 75.684C368.494 74.924 368.341 74.2707 368.034 73.724C367.728 73.164 367.301 72.7307 366.754 72.424C366.221 72.1173 365.614 71.964 364.934 71.964C364.254 71.964 363.648 72.1173 363.114 72.424C362.581 72.7307 362.154 73.164 361.834 73.724C361.514 74.2707 361.354 74.924 361.354 75.684C361.354 76.4307 361.514 77.0907 361.834 77.664C362.154 78.224 362.581 78.6573 363.114 78.964C363.648 79.2707 364.254 79.424 364.934 79.424Z" fill="white"/>
<path d="M373.09 80.984V70.384H374.93V73.264L374.75 72.544C375.043 71.8107 375.536 71.2507 376.23 70.864C376.923 70.4773 377.776 70.284 378.79 70.284V72.144C378.71 72.1307 378.63 72.124 378.55 72.124C378.483 72.124 378.416 72.124 378.35 72.124C377.323 72.124 376.51 72.4307 375.91 73.044C375.31 73.6573 375.01 74.544 375.01 75.704V80.984H373.09Z" fill="white"/>
<path d="M381.156 80.984V70.384H383.076V80.984H381.156ZM382.116 68.344C381.743 68.344 381.429 68.224 381.176 67.984C380.936 67.744 380.816 67.4507 380.816 67.104C380.816 66.744 380.936 66.444 381.176 66.204C381.429 65.964 381.743 65.844 382.116 65.844C382.489 65.844 382.796 65.964 383.036 66.204C383.289 66.4307 383.416 66.7173 383.416 67.064C383.416 67.424 383.296 67.7307 383.056 67.984C382.816 68.224 382.503 68.344 382.116 68.344Z" fill="white"/>
<path d="M391.462 81.104C390.329 81.104 389.329 80.8707 388.462 80.404C387.609 79.9373 386.942 79.2973 386.462 78.484C385.995 77.6707 385.762 76.7373 385.762 75.684C385.762 74.6307 385.989 73.6973 386.442 72.884C386.909 72.0707 387.542 71.4373 388.342 70.984C389.155 70.5173 390.069 70.284 391.082 70.284C392.109 70.284 393.015 70.5107 393.802 70.964C394.589 71.4173 395.202 72.0573 395.642 72.884C396.095 73.6973 396.322 74.6507 396.322 75.744C396.322 75.824 396.315 75.9173 396.302 76.024C396.302 76.1307 396.295 76.2307 396.282 76.324H387.262V74.944H395.282L394.502 75.424C394.515 74.744 394.375 74.1373 394.082 73.604C393.789 73.0707 393.382 72.6573 392.862 72.364C392.355 72.0573 391.762 71.904 391.082 71.904C390.415 71.904 389.822 72.0573 389.302 72.364C388.782 72.6573 388.375 73.0773 388.082 73.624C387.789 74.1573 387.642 74.7707 387.642 75.464V75.784C387.642 76.4907 387.802 77.124 388.122 77.684C388.455 78.2307 388.915 78.6573 389.502 78.964C390.089 79.2707 390.762 79.424 391.522 79.424C392.149 79.424 392.715 79.3173 393.222 79.104C393.742 78.8907 394.195 78.5707 394.582 78.144L395.642 79.384C395.162 79.944 394.562 80.3707 393.842 80.664C393.135 80.9573 392.342 81.104 391.462 81.104Z" fill="white"/>
<path d="M398.988 80.984V66.144H400.908V80.984H398.988Z" fill="white"/>
<path d="M404.574 80.984V66.144H406.494V80.984H404.574Z" fill="white"/>
<path d="M414.88 81.104C413.746 81.104 412.746 80.8707 411.88 80.404C411.026 79.9373 410.36 79.2973 409.88 78.484C409.413 77.6707 409.18 76.7373 409.18 75.684C409.18 74.6307 409.406 73.6973 409.86 72.884C410.326 72.0707 410.96 71.4373 411.76 70.984C412.573 70.5173 413.486 70.284 414.5 70.284C415.526 70.284 416.433 70.5107 417.22 70.964C418.006 71.4173 418.62 72.0573 419.06 72.884C419.513 73.6973 419.74 74.6507 419.74 75.744C419.74 75.824 419.733 75.9173 419.72 76.024C419.72 76.1307 419.713 76.2307 419.7 76.324H410.68V74.944H418.7L417.92 75.424C417.933 74.744 417.793 74.1373 417.5 73.604C417.206 73.0707 416.8 72.6573 416.28 72.364C415.773 72.0573 415.18 71.904 414.5 71.904C413.833 71.904 413.24 72.0573 412.72 72.364C412.2 72.6573 411.793 73.0773 411.5 73.624C411.206 74.1573 411.06 74.7707 411.06 75.464V75.784C411.06 76.4907 411.22 77.124 411.54 77.684C411.873 78.2307 412.333 78.6573 412.92 78.964C413.506 79.2707 414.18 79.424 414.94 79.424C415.566 79.424 416.133 79.3173 416.64 79.104C417.16 78.8907 417.613 78.5707 418 78.144L419.06 79.384C418.58 79.944 417.98 80.3707 417.26 80.664C416.553 80.9573 415.76 81.104 414.88 81.104Z" fill="white"/>
<path d="M432.497 81.104C431.364 81.104 430.364 80.8707 429.497 80.404C428.644 79.9373 427.977 79.2973 427.497 78.484C427.03 77.6707 426.797 76.7373 426.797 75.684C426.797 74.6307 427.024 73.6973 427.477 72.884C427.944 72.0707 428.577 71.4373 429.377 70.984C430.19 70.5173 431.104 70.284 432.117 70.284C433.144 70.284 434.05 70.5107 434.837 70.964C435.624 71.4173 436.237 72.0573 436.677 72.884C437.13 73.6973 437.357 74.6507 437.357 75.744C437.357 75.824 437.35 75.9173 437.337 76.024C437.337 76.1307 437.33 76.2307 437.317 76.324H428.297V74.944H436.317L435.537 75.424C435.55 74.744 435.41 74.1373 435.117 73.604C434.824 73.0707 434.417 72.6573 433.897 72.364C433.39 72.0573 432.797 71.904 432.117 71.904C431.45 71.904 430.857 72.0573 430.337 72.364C429.817 72.6573 429.41 73.0773 429.117 73.624C428.824 74.1573 428.677 74.7707 428.677 75.464V75.784C428.677 76.4907 428.837 77.124 429.157 77.684C429.49 78.2307 429.95 78.6573 430.537 78.964C431.124 79.2707 431.797 79.424 432.557 79.424C433.184 79.424 433.75 79.3173 434.257 79.104C434.777 78.8907 435.23 78.5707 435.617 78.144L436.677 79.384C436.197 79.944 435.597 80.3707 434.877 80.664C434.17 80.9573 433.377 81.104 432.497 81.104Z" fill="white"/>
<path d="M443.663 81.104C442.596 81.104 441.77 80.8173 441.183 80.244C440.596 79.6707 440.303 78.8507 440.303 77.784V68.064H442.223V77.704C442.223 78.2773 442.363 78.7173 442.643 79.024C442.936 79.3307 443.35 79.484 443.883 79.484C444.483 79.484 444.983 79.3173 445.383 78.984L445.983 80.364C445.69 80.6173 445.336 80.804 444.923 80.924C444.523 81.044 444.103 81.104 443.663 81.104ZM438.503 71.964V70.384H445.263V71.964H438.503Z" fill="white"/>
<path d="M453.955 80.984V66.984H455.595L461.875 77.564H460.995L467.195 66.984H468.835L468.855 80.984H466.935L466.915 70.004H467.375L461.855 79.284H460.935L455.375 70.004H455.875V80.984H453.955Z" fill="white"/>
<path d="M477.317 81.104C476.25 81.104 475.304 80.8707 474.477 80.404C473.65 79.9373 472.997 79.2973 472.517 78.484C472.037 77.6573 471.797 76.724 471.797 75.684C471.797 74.6307 472.037 73.6973 472.517 72.884C472.997 72.0707 473.65 71.4373 474.477 70.984C475.304 70.5173 476.25 70.284 477.317 70.284C478.37 70.284 479.31 70.5173 480.137 70.984C480.977 71.4373 481.63 72.0707 482.097 72.884C482.577 73.684 482.817 74.6173 482.817 75.684C482.817 76.7373 482.577 77.6707 482.097 78.484C481.63 79.2973 480.977 79.9373 480.137 80.404C479.31 80.8707 478.37 81.104 477.317 81.104ZM477.317 79.424C477.997 79.424 478.604 79.2707 479.137 78.964C479.684 78.6573 480.11 78.224 480.417 77.664C480.724 77.0907 480.877 76.4307 480.877 75.684C480.877 74.924 480.724 74.2707 480.417 73.724C480.11 73.164 479.684 72.7307 479.137 72.424C478.604 72.1173 477.997 71.964 477.317 71.964C476.637 71.964 476.03 72.1173 475.497 72.424C474.964 72.7307 474.537 73.164 474.217 73.724C473.897 74.2707 473.737 74.924 473.737 75.684C473.737 76.4307 473.897 77.0907 474.217 77.664C474.537 78.224 474.964 78.6573 475.497 78.964C476.03 79.2707 476.637 79.424 477.317 79.424Z" fill="white"/>
<path d="M489.112 81.104C488.046 81.104 487.219 80.8173 486.632 80.244C486.046 79.6707 485.752 78.8507 485.752 77.784V68.064H487.672V77.704C487.672 78.2773 487.812 78.7173 488.092 79.024C488.386 79.3307 488.799 79.484 489.332 79.484C489.932 79.484 490.432 79.3173 490.832 78.984L491.432 80.364C491.139 80.6173 490.786 80.804 490.372 80.924C489.972 81.044 489.552 81.104 489.112 81.104ZM483.952 71.964V70.384H490.712V71.964H483.952Z" fill="white"/>
<path d="M493.754 80.984V70.384H495.594V73.264L495.414 72.544C495.707 71.8107 496.2 71.2507 496.894 70.864C497.587 70.4773 498.44 70.284 499.454 70.284V72.144C499.374 72.1307 499.294 72.124 499.214 72.124C499.147 72.124 499.08 72.124 499.014 72.124C497.987 72.124 497.174 72.4307 496.574 73.044C495.974 73.6573 495.674 74.544 495.674 75.704V80.984H493.754Z" fill="white"/>
<path d="M501.82 80.984V70.384H503.74V80.984H501.82ZM502.78 68.344C502.407 68.344 502.093 68.224 501.84 67.984C501.6 67.744 501.48 67.4507 501.48 67.104C501.48 66.744 501.6 66.444 501.84 66.204C502.093 65.964 502.407 65.844 502.78 65.844C503.153 65.844 503.46 65.964 503.7 66.204C503.953 66.4307 504.08 66.7173 504.08 67.064C504.08 67.424 503.96 67.7307 503.72 67.984C503.48 68.224 503.167 68.344 502.78 68.344Z" fill="white"/>
<path d="M512.026 81.104C510.946 81.104 509.979 80.8707 509.126 80.404C508.286 79.9373 507.626 79.2973 507.146 78.484C506.666 77.6707 506.426 76.7373 506.426 75.684C506.426 74.6307 506.666 73.6973 507.146 72.884C507.626 72.0707 508.286 71.4373 509.126 70.984C509.979 70.5173 510.946 70.284 512.026 70.284C512.986 70.284 513.839 70.4773 514.586 70.864C515.346 71.2373 515.933 71.7973 516.346 72.544L514.886 73.484C514.539 72.964 514.113 72.584 513.606 72.344C513.113 72.0907 512.579 71.964 512.006 71.964C511.313 71.964 510.693 72.1173 510.146 72.424C509.599 72.7307 509.166 73.164 508.846 73.724C508.526 74.2707 508.366 74.924 508.366 75.684C508.366 76.444 508.526 77.104 508.846 77.664C509.166 78.224 509.599 78.6573 510.146 78.964C510.693 79.2707 511.313 79.424 512.006 79.424C512.579 79.424 513.113 79.304 513.606 79.064C514.113 78.8107 514.539 78.424 514.886 77.904L516.346 78.824C515.933 79.5573 515.346 80.124 514.586 80.524C513.839 80.9107 512.986 81.104 512.026 81.104Z" fill="white"/>
<path d="M523.395 81.104C522.262 81.104 521.262 80.8707 520.395 80.404C519.542 79.9373 518.875 79.2973 518.395 78.484C517.929 77.6707 517.695 76.7373 517.695 75.684C517.695 74.6307 517.922 73.6973 518.375 72.884C518.842 72.0707 519.475 71.4373 520.275 70.984C521.089 70.5173 522.002 70.284 523.015 70.284C524.042 70.284 524.949 70.5107 525.735 70.964C526.522 71.4173 527.135 72.0573 527.575 72.884C528.029 73.6973 528.255 74.6507 528.255 75.744C528.255 75.824 528.249 75.9173 528.235 76.024C528.235 76.1307 528.229 76.2307 528.215 76.324H519.195V74.944H527.215L526.435 75.424C526.449 74.744 526.309 74.1373 526.015 73.604C525.722 73.0707 525.315 72.6573 524.795 72.364C524.289 72.0573 523.695 71.904 523.015 71.904C522.349 71.904 521.755 72.0573 521.235 72.364C520.715 72.6573 520.309 73.0773 520.015 73.624C519.722 74.1573 519.575 74.7707 519.575 75.464V75.784C519.575 76.4907 519.735 77.124 520.055 77.684C520.389 78.2307 520.849 78.6573 521.435 78.964C522.022 79.2707 522.695 79.424 523.455 79.424C524.082 79.424 524.649 79.3173 525.155 79.104C525.675 78.8907 526.129 78.5707 526.515 78.144L527.575 79.384C527.095 79.944 526.495 80.3707 525.775 80.664C525.069 80.9573 524.275 81.104 523.395 81.104Z" fill="white"/>
</svg>
