<svg width="306" height="50" viewBox="0 0 306 50" fill="none" xmlns="http://www.w3.org/2000/svg">
<path d="M80.6322 7.768L81.7122 7.792C82.1442 7.792 82.4802 7.816 82.7202 7.864L83.3682 7.96C83.7042 8.008 84.0002 8.128 84.2562 8.32C84.1282 8.992 83.6002 9.328 82.6722 9.328L76.3122 9.136C75.6242 9.136 74.8002 9.168 73.8402 9.232C73.8722 10.976 73.8882 13.336 73.8882 16.312C75.7122 16.152 77.2322 16.072 78.4482 16.072C80.8002 16.072 81.9762 16.304 81.9762 16.768C81.9762 17.36 81.6082 17.656 80.8722 17.656C80.6162 17.656 80.3362 17.632 80.0322 17.584C78.8162 17.44 77.7602 17.368 76.8642 17.368C75.9682 17.368 74.9682 17.432 73.8642 17.56C73.8322 18.088 73.7922 18.928 73.7442 20.08C73.6962 21.216 73.6562 21.976 73.6242 22.36C73.6082 22.744 73.5922 23.016 73.5762 23.176C73.5602 23.336 73.5362 23.528 73.5042 23.752C73.4882 23.976 73.4562 24.16 73.4082 24.304C73.3762 24.448 73.3282 24.6 73.2642 24.76C73.1682 25.016 72.9922 25.208 72.7362 25.336C72.6562 25.368 72.5842 25.384 72.5202 25.384C72.3122 25.384 72.0802 25.32 71.8242 25.192C71.8242 25.016 71.8242 24.512 71.8242 23.68C71.8242 22.848 71.8962 21.08 72.0402 18.376C72.1842 15.656 72.2562 13.6 72.2562 12.208C72.2562 10.816 72.2242 9.688 72.1602 8.824C72.1602 8.44 72.5522 8.168 73.3362 8.008C74.2002 7.832 75.0242 7.744 75.8082 7.744C76.6082 7.728 77.2162 7.72 77.6322 7.72L80.6322 7.768Z" fill="#1CACE1"/>
<path d="M91.8205 18.088L91.7005 20.848C91.7005 22.24 91.8605 23.176 92.1805 23.656C92.3725 23.976 92.6365 24.136 92.9725 24.136C93.0685 24.136 93.2045 24.112 93.3805 24.064C93.7165 23.968 93.9965 24.016 94.2205 24.208C94.1085 24.768 93.5485 25.048 92.5405 25.048C91.8525 25.048 91.3965 24.76 91.1725 24.184C90.9965 23.752 90.8685 23.216 90.7885 22.576C90.7085 21.92 90.6445 21.472 90.5965 21.232C89.5565 23.216 88.5485 24.424 87.5725 24.856C87.0765 25.08 86.5005 25.192 85.8445 25.192C85.1885 25.192 84.6765 24.88 84.3085 24.256C83.9565 23.616 83.7805 22.688 83.7805 21.472C83.7805 20.256 83.9805 18.984 84.3805 17.656C84.7805 16.312 85.3645 15.184 86.1325 14.272C86.9005 13.344 87.7405 12.88 88.6525 12.88C89.9645 12.88 90.8365 13.424 91.2685 14.512C91.6365 15.44 91.8205 16.632 91.8205 18.088ZM85.9405 17.32C85.7165 18.184 85.5485 19.008 85.4365 19.792C85.3245 20.56 85.2685 21.248 85.2685 21.856C85.2685 22.448 85.3885 22.96 85.6285 23.392C85.8845 23.824 86.2125 24.04 86.6125 24.04C87.4765 24.04 88.3085 23.224 89.1085 21.592C89.9085 19.96 90.3085 18.44 90.3085 17.032C90.3085 16.12 90.0685 15.368 89.5885 14.776C89.2685 14.392 88.8445 14.2 88.3165 14.2C87.8045 14.2 87.3325 14.504 86.9005 15.112C86.4845 15.704 86.1645 16.44 85.9405 17.32Z" fill="#1CACE1"/>
<path d="M95.3058 7.744C95.4978 7.392 95.8498 7.216 96.3618 7.216C96.4738 7.216 96.5858 7.232 96.6978 7.264C96.7298 8.112 96.7458 10.48 96.7458 14.368C96.7618 14.352 96.8338 14.28 96.9618 14.152C97.1058 14.024 97.1938 13.944 97.2258 13.912C97.2578 13.88 97.3378 13.808 97.4658 13.696C97.5938 13.568 97.6898 13.488 97.7538 13.456C97.8338 13.408 97.9378 13.344 98.0658 13.264C98.1938 13.168 98.3058 13.104 98.4018 13.072C98.4978 13.024 98.6098 12.976 98.7378 12.928C98.9778 12.848 99.2578 12.808 99.5778 12.808C100.762 12.808 101.714 13.304 102.434 14.296C103.154 15.272 103.514 16.368 103.514 17.584C103.514 18.8 103.33 19.96 102.962 21.064C102.594 22.152 102.026 23.104 101.258 23.92C100.49 24.736 99.5938 25.144 98.5698 25.144C97.5618 25.144 96.7138 24.768 96.0258 24.016C95.3538 23.264 95.0178 22.408 95.0178 21.448C95.0178 20.472 95.0738 18.68 95.1858 16.072C95.2978 13.448 95.3538 11.568 95.3538 10.432C95.3538 9.28 95.3378 8.384 95.3058 7.744ZM98.7378 23.968C99.3618 23.968 99.9218 23.672 100.418 23.08C101.426 21.912 101.93 20.256 101.93 18.112C101.93 16.96 101.706 15.944 101.258 15.064C100.81 14.168 100.178 13.72 99.3618 13.72C98.8978 13.72 98.4898 13.952 98.1378 14.416C97.7858 14.864 97.5138 15.464 97.3218 16.216C96.9538 17.64 96.7698 19.224 96.7698 20.968C96.7698 22.44 97.0738 23.344 97.6818 23.68C97.9538 23.84 98.3058 23.936 98.7378 23.968Z" fill="#1CACE1"/>
<path d="M107.573 7.336C107.557 7.704 107.549 8.112 107.549 8.56C107.549 9.008 107.573 9.472 107.621 9.952C107.397 10.208 107.093 10.336 106.709 10.336C106.229 10.336 105.989 9.952 105.989 9.184C105.989 9.152 105.989 9.032 105.989 8.824C105.989 8.616 105.989 8.432 105.989 8.272C106.005 8.096 106.037 7.896 106.085 7.672C106.197 7.288 106.445 7.096 106.829 7.096C107.213 7.096 107.461 7.176 107.573 7.336ZM106.037 19.096C106.037 15.96 106.197 14.152 106.517 13.672C106.629 13.496 106.765 13.408 106.925 13.408C107.085 13.408 107.349 13.496 107.717 13.672C107.637 15.032 107.597 16.512 107.597 18.112C107.597 18.112 107.613 19.88 107.645 23.416C107.645 23.912 107.533 24.264 107.309 24.472C107.101 24.664 106.901 24.76 106.709 24.76C106.533 24.76 106.349 24.712 106.157 24.616C106.077 22.536 106.037 20.696 106.037 19.096Z" fill="#1CACE1"/>
<path d="M111.898 20.128C111.866 20.448 111.85 20.664 111.85 20.776C111.85 21.736 112.138 22.48 112.714 23.008C113.306 23.536 114.002 23.8 114.802 23.8C115.602 23.8 116.25 23.688 116.746 23.464C117.258 23.24 117.626 23 117.85 22.744C118.426 22.024 118.954 21.664 119.434 21.664C119.61 21.664 119.818 21.712 120.058 21.808C119.898 22.592 119.29 23.312 118.234 23.968C117.194 24.608 115.882 24.928 114.298 24.928C113.178 24.928 112.21 24.576 111.394 23.872C110.594 23.152 110.194 22.176 110.194 20.944C110.194 19.712 110.434 18.52 110.914 17.368C111.41 16.2 112.114 15.208 113.026 14.392C113.954 13.56 114.89 13.144 115.834 13.144C116.794 13.144 117.562 13.344 118.138 13.744C118.73 14.128 119.026 14.696 119.026 15.448C119.026 16.84 118.402 17.992 117.154 18.904C115.922 19.8 114.61 20.248 113.218 20.248C112.85 20.248 112.41 20.208 111.898 20.128ZM113.722 19.336C114.474 19.336 115.146 19.096 115.738 18.616C116.33 18.136 116.746 17.632 116.986 17.104C117.242 16.576 117.37 16.096 117.37 15.664C117.37 15.232 117.202 14.856 116.866 14.536C116.53 14.2 116.138 14.032 115.69 14.032C114.89 14.032 114.146 14.584 113.458 15.688C112.786 16.792 112.306 17.936 112.018 19.12C112.722 19.264 113.29 19.336 113.722 19.336Z" fill="#1CACE1"/>
<path d="M131.882 24.328C131.594 24.632 131.266 24.784 130.898 24.784C130.21 24.784 129.698 24.416 129.362 23.68C129.026 22.944 128.826 22.048 128.762 20.992C128.714 19.936 128.682 18.88 128.666 17.824C128.65 16.768 128.562 15.872 128.402 15.136C128.258 14.4 127.978 14.032 127.562 14.032C127.002 14.032 126.522 14.536 126.122 15.544C125.738 16.552 125.466 17.672 125.306 18.904C124.858 22.344 124.426 24.272 124.01 24.688C123.722 24.832 123.474 24.904 123.266 24.904C123.058 24.904 122.882 24.88 122.738 24.832C122.402 23.36 122.186 20.824 122.09 17.224C122.058 15.432 122.026 14.272 121.994 13.744C122.33 13.52 122.618 13.408 122.858 13.408C123.098 13.408 123.29 13.432 123.434 13.48C123.514 14.168 123.554 15.576 123.554 17.704C123.57 19.832 123.586 21.056 123.602 21.376C123.682 21.04 123.778 20.496 123.89 19.744C124.018 18.992 124.13 18.376 124.226 17.896C124.322 17.4 124.474 16.824 124.682 16.168C124.89 15.512 125.122 14.992 125.378 14.608C125.634 14.208 125.986 13.872 126.434 13.6C126.882 13.312 127.386 13.168 127.946 13.168C128.698 13.168 129.242 13.512 129.578 14.2C129.93 14.872 130.122 15.712 130.154 16.72C130.186 17.728 130.202 18.752 130.202 19.792C130.218 20.832 130.346 21.784 130.586 22.648C130.842 23.512 131.274 24.072 131.882 24.328Z" fill="#1CACE1"/>
<path d="M143.296 24.328C143.008 24.632 142.68 24.784 142.312 24.784C141.624 24.784 141.112 24.416 140.776 23.68C140.44 22.944 140.24 22.048 140.176 20.992C140.128 19.936 140.096 18.88 140.08 17.824C140.064 16.768 139.976 15.872 139.816 15.136C139.672 14.4 139.392 14.032 138.976 14.032C138.416 14.032 137.936 14.536 137.536 15.544C137.152 16.552 136.88 17.672 136.72 18.904C136.272 22.344 135.84 24.272 135.424 24.688C135.136 24.832 134.888 24.904 134.68 24.904C134.472 24.904 134.296 24.88 134.152 24.832C133.816 23.36 133.6 20.824 133.504 17.224C133.472 15.432 133.44 14.272 133.408 13.744C133.744 13.52 134.032 13.408 134.272 13.408C134.512 13.408 134.704 13.432 134.848 13.48C134.928 14.168 134.968 15.576 134.968 17.704C134.984 19.832 135 21.056 135.016 21.376C135.096 21.04 135.192 20.496 135.304 19.744C135.432 18.992 135.544 18.376 135.64 17.896C135.736 17.4 135.888 16.824 136.096 16.168C136.304 15.512 136.536 14.992 136.792 14.608C137.048 14.208 137.4 13.872 137.848 13.6C138.296 13.312 138.8 13.168 139.36 13.168C140.112 13.168 140.656 13.512 140.992 14.2C141.344 14.872 141.536 15.712 141.568 16.72C141.6 17.728 141.616 18.752 141.616 19.792C141.632 20.832 141.76 21.784 142 22.648C142.256 23.512 142.688 24.072 143.296 24.328Z" fill="#1CACE1"/>
<path d="M146.07 20.128C146.038 20.448 146.022 20.664 146.022 20.776C146.022 21.736 146.31 22.48 146.886 23.008C147.478 23.536 148.174 23.8 148.974 23.8C149.774 23.8 150.422 23.688 150.918 23.464C151.43 23.24 151.798 23 152.022 22.744C152.598 22.024 153.126 21.664 153.606 21.664C153.782 21.664 153.99 21.712 154.23 21.808C154.07 22.592 153.462 23.312 152.406 23.968C151.366 24.608 150.054 24.928 148.47 24.928C147.35 24.928 146.382 24.576 145.566 23.872C144.766 23.152 144.366 22.176 144.366 20.944C144.366 19.712 144.606 18.52 145.086 17.368C145.582 16.2 146.286 15.208 147.198 14.392C148.126 13.56 149.062 13.144 150.006 13.144C150.966 13.144 151.734 13.344 152.31 13.744C152.902 14.128 153.198 14.696 153.198 15.448C153.198 16.84 152.574 17.992 151.326 18.904C150.094 19.8 148.782 20.248 147.39 20.248C147.022 20.248 146.582 20.208 146.07 20.128ZM147.894 19.336C148.646 19.336 149.318 19.096 149.91 18.616C150.502 18.136 150.918 17.632 151.158 17.104C151.414 16.576 151.542 16.096 151.542 15.664C151.542 15.232 151.374 14.856 151.038 14.536C150.702 14.2 150.31 14.032 149.862 14.032C149.062 14.032 148.318 14.584 147.63 15.688C146.958 16.792 146.478 17.936 146.19 19.12C146.894 19.264 147.462 19.336 147.894 19.336Z" fill="#1CACE1"/>
<path d="M162.3 23.512L162.108 9.472C162.108 8.448 164.18 7.936 168.324 7.936C170.276 7.936 171.908 8.304 173.22 9.04C174.548 9.776 175.212 10.832 175.212 12.208C175.212 13.12 174.86 13.984 174.156 14.8C173.452 15.616 172.66 16.136 171.78 16.36C172.884 16.696 173.836 17.184 174.636 17.824C175.452 18.464 175.86 19.296 175.86 20.32C175.86 21.344 175.42 22.248 174.54 23.032C172.844 24.52 170.236 25.264 166.716 25.264C163.772 25.264 162.3 24.68 162.3 23.512ZM163.86 16.432C164.852 16.048 165.948 15.856 167.148 15.856C167.708 15.856 168.268 15.856 168.828 15.856C169.676 15.856 170.7 15.48 171.9 14.728C173.116 13.96 173.724 13.232 173.724 12.544C173.724 11.52 173.084 10.712 171.804 10.12C170.524 9.512 169.108 9.208 167.556 9.208C166.004 9.208 164.748 9.384 163.788 9.736C163.788 10.024 163.788 10.448 163.788 11.008C163.788 11.552 163.796 12.464 163.812 13.744C163.844 15.008 163.86 15.904 163.86 16.432ZM174.108 20.32C174.108 18.928 172.604 17.912 169.596 17.272C168.06 17.72 166.604 17.944 165.228 17.944C164.78 17.944 164.34 17.92 163.908 17.872C163.956 19.776 163.98 21.712 163.98 23.68C164.908 23.888 165.844 23.992 166.788 23.992C167.748 23.992 168.596 23.936 169.332 23.824C170.084 23.696 170.828 23.504 171.564 23.248C172.316 22.992 172.924 22.608 173.388 22.096C173.868 21.584 174.108 20.992 174.108 20.32Z" fill="#1CACE1"/>
<path d="M179.131 15.04C179.947 13.792 181.123 13.168 182.659 13.168C184.195 13.168 185.419 13.792 186.331 15.04C187.259 16.288 187.723 17.712 187.723 19.312C187.723 20.896 187.219 22.24 186.211 23.344C185.203 24.448 183.923 25 182.371 25C180.819 25 179.691 24.568 178.987 23.704C178.283 22.824 177.931 21.592 177.931 20.008C177.931 17.944 178.331 16.288 179.131 15.04ZM180.187 16.312C179.979 16.936 179.819 17.56 179.707 18.184C179.611 18.808 179.563 19.392 179.563 19.936C179.563 20.464 179.603 20.952 179.683 21.4C179.763 21.832 179.899 22.264 180.091 22.696C180.283 23.112 180.571 23.448 180.955 23.704C181.339 23.944 181.795 24.064 182.323 24.064C183.395 24.064 184.291 23.624 185.011 22.744C185.747 21.864 186.115 20.8 186.115 19.552C186.115 18.304 185.779 17.096 185.107 15.928C184.451 14.744 183.643 14.152 182.683 14.152C182.107 14.152 181.603 14.352 181.171 14.752C180.739 15.152 180.411 15.672 180.187 16.312Z" fill="#1CACE1"/>
<path d="M190.872 10.648C190.872 9.064 190.656 8 190.224 7.456C190.432 7.152 190.792 7 191.304 7C191.4 7 191.504 7.008 191.616 7.024C192.016 7.424 192.216 8.584 192.216 10.504C192.216 11.544 192.168 12.752 192.072 14.128C191.88 16.528 191.784 18.288 191.784 19.408C191.784 22.432 192.368 23.944 193.536 23.944C193.536 23.944 193.832 23.888 194.424 23.776C194.568 23.776 194.688 23.84 194.784 23.968C194.736 24.544 194.264 24.832 193.368 24.832C192.488 24.832 191.808 24.568 191.328 24.04C190.848 23.496 190.544 22.824 190.416 22.024C190.304 21.208 190.248 20.536 190.248 20.008C190.248 19.48 190.256 18.904 190.272 18.28C190.288 17.64 190.36 16.728 190.488 15.544C190.744 13.144 190.872 11.512 190.872 10.648Z" fill="#1CACE1"/>
<path d="M196.591 10.648C196.591 9.064 196.375 8 195.943 7.456C196.151 7.152 196.511 7 197.023 7C197.119 7 197.223 7.008 197.335 7.024C197.735 7.424 197.935 8.584 197.935 10.504C197.935 11.544 197.887 12.752 197.791 14.128C197.599 16.528 197.503 18.288 197.503 19.408C197.503 22.432 198.087 23.944 199.255 23.944C199.255 23.944 199.551 23.888 200.143 23.776C200.287 23.776 200.407 23.84 200.503 23.968C200.455 24.544 199.983 24.832 199.087 24.832C198.207 24.832 197.527 24.568 197.047 24.04C196.567 23.496 196.263 22.824 196.135 22.024C196.023 21.208 195.967 20.536 195.967 20.008C195.967 19.48 195.975 18.904 195.991 18.28C196.007 17.64 196.079 16.728 196.207 15.544C196.463 13.144 196.591 11.512 196.591 10.648Z" fill="#1CACE1"/>
<path d="M209.102 18.088L208.982 20.848C208.982 22.24 209.142 23.176 209.462 23.656C209.654 23.976 209.918 24.136 210.254 24.136C210.35 24.136 210.486 24.112 210.662 24.064C210.998 23.968 211.278 24.016 211.502 24.208C211.39 24.768 210.83 25.048 209.822 25.048C209.134 25.048 208.678 24.76 208.454 24.184C208.278 23.752 208.15 23.216 208.07 22.576C207.99 21.92 207.926 21.472 207.878 21.232C206.838 23.216 205.83 24.424 204.854 24.856C204.358 25.08 203.782 25.192 203.126 25.192C202.47 25.192 201.958 24.88 201.59 24.256C201.238 23.616 201.062 22.688 201.062 21.472C201.062 20.256 201.262 18.984 201.662 17.656C202.062 16.312 202.646 15.184 203.414 14.272C204.182 13.344 205.022 12.88 205.934 12.88C207.246 12.88 208.118 13.424 208.55 14.512C208.918 15.44 209.102 16.632 209.102 18.088ZM203.222 17.32C202.998 18.184 202.83 19.008 202.718 19.792C202.606 20.56 202.55 21.248 202.55 21.856C202.55 22.448 202.67 22.96 202.91 23.392C203.166 23.824 203.494 24.04 203.894 24.04C204.758 24.04 205.59 23.224 206.39 21.592C207.19 19.96 207.59 18.44 207.59 17.032C207.59 16.12 207.35 15.368 206.87 14.776C206.55 14.392 206.126 14.2 205.598 14.2C205.086 14.2 204.614 14.504 204.182 15.112C203.766 15.704 203.446 16.44 203.222 17.32Z" fill="#1CACE1"/>
<path d="M214.651 22.648L214.723 24.016C214.723 24.368 214.619 24.616 214.411 24.76C214.219 24.888 214.019 24.952 213.811 24.952C213.619 24.952 213.419 24.92 213.211 24.856C212.859 23 212.587 20.688 212.395 17.92C212.219 15.152 212.115 13.584 212.083 13.216C212.323 12.992 212.571 12.88 212.827 12.88C213.099 12.88 213.339 12.912 213.547 12.976C213.611 13.44 213.659 14.464 213.691 16.048C213.723 17.632 213.763 18.624 213.811 19.024C214.035 17.68 214.435 16.424 215.011 15.256C215.331 14.6 215.747 14.08 216.259 13.696C216.787 13.296 217.347 13.096 217.939 13.096C218.547 13.096 219.099 13.368 219.595 13.912C220.107 14.44 220.363 14.92 220.363 15.352C220.363 15.512 220.267 15.64 220.075 15.736C219.883 15.816 219.667 15.856 219.427 15.856C219.203 15.856 219.027 15.768 218.899 15.592C218.771 15.416 218.683 15.224 218.635 15.016C218.587 14.792 218.483 14.592 218.323 14.416C218.163 14.24 217.947 14.152 217.675 14.152C216.955 14.152 216.339 14.8 215.827 16.096C215.043 18.032 214.651 20.216 214.651 22.648Z" fill="#1CACE1"/>
<path d="M230.768 5.776C230.16 11.28 229.856 15.208 229.856 17.56C229.856 19.896 230.072 22.232 230.504 24.568C230.184 24.888 229.904 25.048 229.664 25.048C229.424 25.048 229.224 25.016 229.064 24.952C228.728 23.768 228.528 22.48 228.464 21.088C228.08 21.696 227.792 22.128 227.6 22.384C227.424 22.64 227.112 23.016 226.664 23.512C225.848 24.472 224.88 24.952 223.76 24.952C222.912 24.952 222.296 24.56 221.912 23.776C221.544 22.976 221.36 21.96 221.36 20.728C221.36 19.48 221.496 18.296 221.768 17.176C222.056 16.04 222.544 15.064 223.232 14.248C223.92 13.416 224.768 13 225.776 13C226.384 13 226.944 13.128 227.456 13.384C227.968 13.64 228.32 13.984 228.512 14.416C228.544 13.984 228.576 13.32 228.608 12.424C228.64 11.528 228.672 10.736 228.704 10.048C228.752 9.344 228.824 8.632 228.92 7.912C229.096 6.376 229.488 5.608 230.096 5.608C230.304 5.608 230.528 5.664 230.768 5.776ZM227.96 15.28C227.768 14.928 227.504 14.672 227.168 14.512C226.832 14.336 226.384 14.248 225.824 14.248C225.28 14.248 224.768 14.56 224.288 15.184C223.344 16.416 222.872 18.2 222.872 20.536C222.872 21.288 222.992 22.04 223.232 22.792C223.472 23.528 223.824 23.896 224.288 23.896C224.96 23.896 225.616 23.456 226.256 22.576C226.896 21.696 227.392 20.688 227.744 19.552C228.096 18.4 228.272 17.368 228.272 16.456C228.272 16.024 228.168 15.632 227.96 15.28Z" fill="#1CACE1"/>
<path d="M70.959 44V35.2727H76.4306V36.4063H72.2757V39.0653H76.1451V40.1946H72.2757V42.8665H76.4817V44H70.959ZM73.1664 34.3992L74.1635 32.4347H75.5059L74.1848 34.3992H73.1664Z" fill="black"/>
<path d="M81.0175 44.1278C80.4891 44.1278 80.0175 43.9929 79.6027 43.723C79.1908 43.4503 78.8669 43.0625 78.6311 42.5597C78.3981 42.054 78.2817 41.4474 78.2817 40.7401C78.2817 40.0327 78.3996 39.4276 78.6354 38.9247C78.874 38.4219 79.2007 38.0369 79.6155 37.7699C80.0302 37.5028 80.5004 37.3693 81.026 37.3693C81.4322 37.3693 81.7589 37.4375 82.0061 37.5739C82.2561 37.7074 82.4493 37.8636 82.5856 38.0426C82.7249 38.2216 82.8328 38.3793 82.9095 38.5156H82.9862V35.2727H84.2604V44H83.016V42.9815H82.9095C82.8328 43.1207 82.722 43.2798 82.5771 43.4588C82.4351 43.6378 82.2391 43.794 81.9891 43.9276C81.7391 44.0611 81.4152 44.1278 81.0175 44.1278ZM81.2987 43.0412C81.6652 43.0412 81.9749 42.9446 82.2277 42.7514C82.4834 42.5554 82.6766 42.2841 82.8072 41.9375C82.9408 41.5909 83.0075 41.1875 83.0075 40.7273C83.0075 40.2727 82.9422 39.875 82.8115 39.5341C82.6808 39.1932 82.4891 38.9276 82.2362 38.7372C81.9834 38.5469 81.6709 38.4517 81.2987 38.4517C80.9152 38.4517 80.5956 38.5511 80.3399 38.75C80.0842 38.9489 79.891 39.2202 79.7604 39.5639C79.6325 39.9077 79.5686 40.2955 79.5686 40.7273C79.5686 41.1648 79.6339 41.5582 79.7646 41.9077C79.8953 42.2571 80.0885 42.5341 80.3442 42.7386C80.6027 42.9403 80.9209 43.0412 81.2987 43.0412Z" fill="black"/>
<path d="M90.7052 41.2855V37.4545H91.9836V44H90.7308V42.8665H90.6626C90.512 43.2159 90.2705 43.5071 89.9382 43.7401C89.6086 43.9702 89.1981 44.0852 88.7066 44.0852C88.2862 44.0852 87.914 43.9929 87.5901 43.8082C87.2691 43.6207 87.0163 43.3438 86.8316 42.9773C86.6498 42.6108 86.5589 42.1577 86.5589 41.6179V37.4545H87.833V41.4645C87.833 41.9105 87.9566 42.2656 88.2038 42.5298C88.4509 42.794 88.772 42.9261 89.1669 42.9261C89.4055 42.9261 89.6427 42.8665 89.8785 42.7472C90.1171 42.6278 90.3146 42.4474 90.4708 42.206C90.6299 41.9645 90.708 41.6577 90.7052 41.2855Z" fill="black"/>
<path d="M96.9327 44.1321C96.2992 44.1321 95.7537 43.9886 95.2964 43.7017C94.8418 43.4119 94.4924 43.0128 94.2481 42.5043C94.0037 41.9957 93.8816 41.4134 93.8816 40.7571C93.8816 40.0923 94.0066 39.5057 94.2566 38.9972C94.5066 38.4858 94.8589 38.0867 95.3134 37.7997C95.7679 37.5128 96.3035 37.3693 96.9199 37.3693C97.4171 37.3693 97.8603 37.4617 98.2495 37.6463C98.6387 37.8281 98.9526 38.0838 99.1912 38.4134C99.4327 38.7429 99.5762 39.1278 99.6216 39.5682H98.3816C98.3134 39.2614 98.1572 38.9972 97.9128 38.7756C97.6714 38.554 97.3475 38.4432 96.9412 38.4432C96.5861 38.4432 96.2751 38.5369 96.008 38.7244C95.7438 38.9091 95.5378 39.1733 95.3901 39.517C95.2424 39.858 95.1685 40.2614 95.1685 40.7273C95.1685 41.2045 95.241 41.6165 95.3858 41.9631C95.5307 42.3097 95.7353 42.5781 95.9995 42.7685C96.2665 42.9588 96.5804 43.054 96.9412 43.054C97.1827 43.054 97.4015 43.0099 97.5975 42.9219C97.7964 42.831 97.9626 42.7017 98.0961 42.5341C98.2324 42.3665 98.3276 42.1648 98.3816 41.929H99.6216C99.5762 42.3523 99.4384 42.7301 99.2083 43.0625C98.9782 43.3949 98.6699 43.6563 98.2836 43.8466C97.9001 44.0369 97.4498 44.1321 96.9327 44.1321Z" fill="black"/>
<path d="M103.369 44.1449C102.954 44.1449 102.579 44.0682 102.244 43.9148C101.909 43.7585 101.643 43.5327 101.447 43.2372C101.254 42.9418 101.157 42.5795 101.157 42.1506C101.157 41.7813 101.228 41.4773 101.37 41.2386C101.513 41 101.704 40.8111 101.946 40.6719C102.187 40.5327 102.457 40.4276 102.755 40.3565C103.054 40.2855 103.358 40.2315 103.667 40.1946C104.059 40.1492 104.378 40.1122 104.622 40.0838C104.866 40.0526 105.044 40.0028 105.155 39.9347C105.265 39.8665 105.321 39.7557 105.321 39.6023V39.5724C105.321 39.2003 105.216 38.9119 105.005 38.7074C104.798 38.5028 104.488 38.4006 104.076 38.4006C103.647 38.4006 103.309 38.4957 103.062 38.6861C102.818 38.8736 102.649 39.0824 102.555 39.3125L101.358 39.0398C101.5 38.642 101.707 38.321 101.98 38.0767C102.255 37.8295 102.572 37.6506 102.93 37.5398C103.288 37.4261 103.664 37.3693 104.059 37.3693C104.321 37.3693 104.598 37.4006 104.89 37.4631C105.186 37.5227 105.461 37.6335 105.717 37.7955C105.976 37.9574 106.187 38.1889 106.352 38.4901C106.517 38.7884 106.599 39.1761 106.599 39.6534V44H105.355V43.1051H105.304C105.221 43.2699 105.098 43.4318 104.933 43.5909C104.768 43.75 104.557 43.8821 104.298 43.9872C104.039 44.0923 103.73 44.1449 103.369 44.1449ZM103.646 43.1222C103.998 43.1222 104.299 43.0526 104.549 42.9134C104.802 42.7742 104.994 42.5923 105.125 42.3679C105.258 42.1406 105.325 41.8977 105.325 41.6392V40.7955C105.28 40.8409 105.191 40.8835 105.061 40.9233C104.933 40.9602 104.787 40.9929 104.622 41.0213C104.457 41.0469 104.297 41.071 104.14 41.0938C103.984 41.1136 103.853 41.1307 103.748 41.1449C103.501 41.1761 103.275 41.2287 103.071 41.3026C102.869 41.3764 102.707 41.483 102.585 41.6222C102.466 41.7585 102.406 41.9403 102.406 42.1676C102.406 42.483 102.522 42.7216 102.755 42.8835C102.988 43.0426 103.285 43.1222 103.646 43.1222Z" fill="black"/>
<path d="M111.832 37.4545V38.4773H108.256V37.4545H111.832ZM109.215 35.8864H110.489V42.0781C110.489 42.3253 110.526 42.5114 110.6 42.6364C110.674 42.7585 110.769 42.8423 110.886 42.8878C111.005 42.9304 111.134 42.9517 111.273 42.9517C111.376 42.9517 111.465 42.9446 111.542 42.9304C111.619 42.9162 111.678 42.9048 111.721 42.8963L111.951 43.9489C111.877 43.9773 111.772 44.0057 111.636 44.0341C111.499 44.0653 111.329 44.0824 111.124 44.0852C110.789 44.0909 110.477 44.0313 110.187 43.9063C109.897 43.7813 109.663 43.5881 109.484 43.3267C109.305 43.0653 109.215 42.7372 109.215 42.3423V35.8864Z" fill="black"/>
<path d="M113.721 44V37.4545H114.995V44H113.721ZM114.365 36.4446C114.143 36.4446 113.953 36.3707 113.794 36.223C113.637 36.0724 113.559 35.8935 113.559 35.6861C113.559 35.4759 113.637 35.2969 113.794 35.1492C113.953 34.9986 114.143 34.9233 114.365 34.9233C114.586 34.9233 114.775 34.9986 114.931 35.1492C115.09 35.2969 115.17 35.4759 115.17 35.6861C115.17 35.8935 115.09 36.0724 114.931 36.223C114.775 36.3707 114.586 36.4446 114.365 36.4446Z" fill="black"/>
<path d="M119.946 44.1321C119.333 44.1321 118.797 43.9915 118.34 43.7102C117.883 43.429 117.527 43.0355 117.275 42.5298C117.022 42.0242 116.895 41.4332 116.895 40.7571C116.895 40.0781 117.022 39.4844 117.275 38.9759C117.527 38.4673 117.883 38.0724 118.34 37.7912C118.797 37.5099 119.333 37.3693 119.946 37.3693C120.56 37.3693 121.096 37.5099 121.553 37.7912C122.01 38.0724 122.366 38.4673 122.618 38.9759C122.871 39.4844 122.998 40.0781 122.998 40.7571C122.998 41.4332 122.871 42.0242 122.618 42.5298C122.366 43.0355 122.01 43.429 121.553 43.7102C121.096 43.9915 120.56 44.1321 119.946 44.1321ZM119.951 43.0625C120.348 43.0625 120.678 42.9574 120.939 42.7472C121.201 42.5369 121.394 42.2571 121.519 41.9077C121.647 41.5582 121.711 41.1733 121.711 40.7528C121.711 40.3352 121.647 39.9517 121.519 39.6023C121.394 39.25 121.201 38.9673 120.939 38.7543C120.678 38.5412 120.348 38.4347 119.951 38.4347C119.55 38.4347 119.218 38.5412 118.954 38.7543C118.692 38.9673 118.498 39.25 118.37 39.6023C118.245 39.9517 118.182 40.3352 118.182 40.7528C118.182 41.1733 118.245 41.5582 118.37 41.9077C118.498 42.2571 118.692 42.5369 118.954 42.7472C119.218 42.9574 119.55 43.0625 119.951 43.0625Z" fill="black"/>
<path d="M126.174 40.1136V44H124.9V37.4545H126.123V38.5199H126.204C126.354 38.1733 126.59 37.8949 126.911 37.6847C127.235 37.4744 127.643 37.3693 128.134 37.3693C128.58 37.3693 128.971 37.4631 129.306 37.6506C129.641 37.8352 129.901 38.1108 130.086 38.4773C130.271 38.8438 130.363 39.2969 130.363 39.8367V44H129.089V39.9901C129.089 39.5156 128.965 39.1449 128.718 38.8778C128.471 38.608 128.131 38.473 127.7 38.473C127.404 38.473 127.141 38.5369 126.911 38.6648C126.684 38.7926 126.504 38.9801 126.37 39.2273C126.239 39.4716 126.174 39.767 126.174 40.1136Z" fill="black"/>
<path d="M143.354 35.2727V44H142.144L137.707 37.5994H137.627V44H136.31V35.2727H137.529L141.969 41.6818H142.05V35.2727H143.354Z" fill="black"/>
<path d="M148.473 44.1321C147.828 44.1321 147.273 43.9943 146.807 43.7188C146.344 43.4403 145.986 43.0497 145.733 42.5469C145.483 42.0412 145.358 41.4489 145.358 40.7699C145.358 40.0994 145.483 39.5085 145.733 38.9972C145.986 38.4858 146.338 38.0867 146.79 37.7997C147.245 37.5128 147.776 37.3693 148.384 37.3693C148.753 37.3693 149.111 37.4304 149.458 37.5526C149.804 37.6747 150.115 37.8665 150.391 38.1278C150.667 38.3892 150.884 38.7287 151.043 39.1463C151.202 39.5611 151.282 40.0653 151.282 40.6591V41.1108H146.078V40.1563H150.033C150.033 39.821 149.965 39.5242 149.828 39.2656C149.692 39.0043 149.5 38.7983 149.253 38.6477C149.009 38.4972 148.722 38.4219 148.392 38.4219C148.034 38.4219 147.722 38.5099 147.455 38.6861C147.191 38.8594 146.986 39.0867 146.841 39.3679C146.699 39.6463 146.628 39.9489 146.628 40.2756V41.0213C146.628 41.4588 146.705 41.831 146.858 42.1378C147.015 42.4446 147.232 42.679 147.51 42.8409C147.789 43 148.114 43.0795 148.486 43.0795C148.728 43.0795 148.948 43.0455 149.147 42.9773C149.346 42.9063 149.517 42.8011 149.662 42.6619C149.807 42.5227 149.918 42.3509 149.995 42.1463L151.201 42.3636C151.104 42.7188 150.931 43.0298 150.681 43.2969C150.434 43.5611 150.123 43.767 149.748 43.9148C149.375 44.0597 148.951 44.1321 148.473 44.1321Z" fill="black"/>
<path d="M157.322 41.2855V37.4545H158.6V44H157.347V42.8665H157.279C157.128 43.2159 156.887 43.5071 156.555 43.7401C156.225 43.9702 155.815 44.0852 155.323 44.0852C154.903 44.0852 154.53 43.9929 154.207 43.8082C153.886 43.6207 153.633 43.3438 153.448 42.9773C153.266 42.6108 153.175 42.1577 153.175 41.6179V37.4545H154.449V41.4645C154.449 41.9105 154.573 42.2656 154.82 42.5298C155.067 42.794 155.388 42.9261 155.783 42.9261C156.022 42.9261 156.259 42.8665 156.495 42.7472C156.734 42.6278 156.931 42.4474 157.087 42.206C157.246 41.9645 157.324 41.6577 157.322 41.2855Z" fill="black"/>
<path d="M160.792 44V37.4545H162.024V38.4943H162.092C162.211 38.142 162.421 37.8651 162.722 37.6634C163.026 37.4588 163.37 37.3565 163.754 37.3565C163.833 37.3565 163.927 37.3594 164.035 37.3651C164.146 37.3707 164.232 37.3778 164.295 37.3864V38.6051C164.244 38.5909 164.153 38.5753 164.022 38.5582C163.891 38.5384 163.761 38.5284 163.63 38.5284C163.329 38.5284 163.06 38.5923 162.825 38.7202C162.592 38.8452 162.407 39.0199 162.271 39.2443C162.134 39.4659 162.066 39.7188 162.066 40.0028V44H160.792Z" fill="black"/>
<path d="M168.4 44.1321C167.787 44.1321 167.251 43.9915 166.794 43.7102C166.336 43.429 165.981 43.0355 165.728 42.5298C165.476 42.0242 165.349 41.4332 165.349 40.7571C165.349 40.0781 165.476 39.4844 165.728 38.9759C165.981 38.4673 166.336 38.0724 166.794 37.7912C167.251 37.5099 167.787 37.3693 168.4 37.3693C169.014 37.3693 169.549 37.5099 170.007 37.7912C170.464 38.0724 170.819 38.4673 171.072 38.9759C171.325 39.4844 171.451 40.0781 171.451 40.7571C171.451 41.4332 171.325 42.0242 171.072 42.5298C170.819 43.0355 170.464 43.429 170.007 43.7102C169.549 43.9915 169.014 44.1321 168.4 44.1321ZM168.404 43.0625C168.802 43.0625 169.132 42.9574 169.393 42.7472C169.654 42.5369 169.848 42.2571 169.973 41.9077C170.101 41.5582 170.164 41.1733 170.164 40.7528C170.164 40.3352 170.101 39.9517 169.973 39.6023C169.848 39.25 169.654 38.9673 169.393 38.7543C169.132 38.5412 168.802 38.4347 168.404 38.4347C168.004 38.4347 167.672 38.5412 167.407 38.7543C167.146 38.9673 166.951 39.25 166.824 39.6023C166.699 39.9517 166.636 40.3352 166.636 40.7528C166.636 41.1733 166.699 41.5582 166.824 41.9077C166.951 42.2571 167.146 42.5369 167.407 42.7472C167.672 42.9574 168.004 43.0625 168.404 43.0625Z" fill="black"/>
<path d="M178.258 39.0526L177.104 39.2571C177.055 39.1094 176.979 38.9688 176.873 38.8352C176.771 38.7017 176.632 38.5923 176.456 38.5071C176.28 38.4219 176.06 38.3793 175.795 38.3793C175.435 38.3793 175.133 38.4602 174.892 38.6222C174.65 38.7813 174.53 38.9872 174.53 39.2401C174.53 39.4588 174.611 39.6349 174.773 39.7685C174.935 39.902 175.196 40.0114 175.557 40.0966L176.596 40.3352C177.199 40.4744 177.648 40.6889 177.943 40.9787C178.239 41.2685 178.386 41.6449 178.386 42.108C178.386 42.5 178.273 42.8494 178.045 43.1563C177.821 43.4602 177.507 43.6989 177.104 43.8722C176.703 44.0455 176.239 44.1321 175.71 44.1321C174.977 44.1321 174.379 43.9759 173.916 43.6634C173.453 43.348 173.169 42.9006 173.064 42.321L174.295 42.1335C174.372 42.4545 174.53 42.6974 174.768 42.8622C175.007 43.0242 175.318 43.1051 175.702 43.1051C176.119 43.1051 176.453 43.0185 176.703 42.8452C176.953 42.669 177.078 42.4545 177.078 42.2017C177.078 41.9972 177.001 41.8253 176.848 41.6861C176.697 41.5469 176.466 41.4418 176.153 41.3707L175.045 41.1278C174.435 40.9886 173.983 40.767 173.69 40.4631C173.4 40.1591 173.256 39.7742 173.256 39.3082C173.256 38.9219 173.364 38.5838 173.579 38.294C173.795 38.0043 174.094 37.7784 174.474 37.6165C174.855 37.4517 175.291 37.3693 175.783 37.3693C176.49 37.3693 177.047 37.5227 177.453 37.8295C177.859 38.1335 178.128 38.5412 178.258 39.0526Z" fill="black"/>
<path d="M183.088 44.1321C182.443 44.1321 181.888 43.9943 181.422 43.7188C180.959 43.4403 180.601 43.0497 180.348 42.5469C180.098 42.0412 179.973 41.4489 179.973 40.7699C179.973 40.0994 180.098 39.5085 180.348 38.9972C180.601 38.4858 180.953 38.0867 181.405 37.7997C181.86 37.5128 182.391 37.3693 182.999 37.3693C183.368 37.3693 183.726 37.4304 184.073 37.5526C184.419 37.6747 184.73 37.8665 185.006 38.1278C185.281 38.3892 185.499 38.7287 185.658 39.1463C185.817 39.5611 185.896 40.0653 185.896 40.6591V41.1108H180.693V40.1563H184.648C184.648 39.821 184.58 39.5242 184.443 39.2656C184.307 39.0043 184.115 38.7983 183.868 38.6477C183.624 38.4972 183.337 38.4219 183.007 38.4219C182.649 38.4219 182.337 38.5099 182.07 38.6861C181.806 38.8594 181.601 39.0867 181.456 39.3679C181.314 39.6463 181.243 39.9489 181.243 40.2756V41.0213C181.243 41.4588 181.32 41.831 181.473 42.1378C181.629 42.4446 181.847 42.679 182.125 42.8409C182.404 43 182.729 43.0795 183.101 43.0795C183.342 43.0795 183.563 43.0455 183.761 42.9773C183.96 42.9063 184.132 42.8011 184.277 42.6619C184.422 42.5227 184.533 42.3509 184.61 42.1463L185.815 42.3636C185.719 42.7188 185.546 43.0298 185.296 43.2969C185.048 43.5611 184.737 43.767 184.362 43.9148C183.99 44.0597 183.565 44.1321 183.088 44.1321Z" fill="black"/>
<path d="M189.064 40.1136V44H187.79V37.4545H189.013V38.5199H189.094C189.245 38.1733 189.48 37.8949 189.802 37.6847C190.125 37.4744 190.533 37.3693 191.025 37.3693C191.471 37.3693 191.861 37.4631 192.196 37.6506C192.532 37.8352 192.792 38.1108 192.976 38.4773C193.161 38.8438 193.253 39.2969 193.253 39.8367V44H191.979V39.9901C191.979 39.5156 191.855 39.1449 191.608 38.8778C191.361 38.608 191.022 38.473 190.59 38.473C190.294 38.473 190.032 38.5369 189.802 38.6648C189.574 38.7926 189.394 38.9801 189.26 39.2273C189.13 39.4716 189.064 39.767 189.064 40.1136Z" fill="black"/>
<path d="M200.347 39.0526L199.192 39.2571C199.144 39.1094 199.067 38.9688 198.962 38.8352C198.86 38.7017 198.72 38.5923 198.544 38.5071C198.368 38.4219 198.148 38.3793 197.884 38.3793C197.523 38.3793 197.222 38.4602 196.98 38.6222C196.739 38.7813 196.618 38.9872 196.618 39.2401C196.618 39.4588 196.699 39.6349 196.861 39.7685C197.023 39.902 197.284 40.0114 197.645 40.0966L198.685 40.3352C199.287 40.4744 199.736 40.6889 200.032 40.9787C200.327 41.2685 200.475 41.6449 200.475 42.108C200.475 42.5 200.361 42.8494 200.134 43.1563C199.909 43.4602 199.595 43.6989 199.192 43.8722C198.791 44.0455 198.327 44.1321 197.799 44.1321C197.066 44.1321 196.468 43.9759 196.005 43.6634C195.541 43.348 195.257 42.9006 195.152 42.321L196.384 42.1335C196.46 42.4545 196.618 42.6974 196.857 42.8622C197.095 43.0242 197.407 43.1051 197.79 43.1051C198.208 43.1051 198.541 43.0185 198.791 42.8452C199.041 42.669 199.166 42.4545 199.166 42.2017C199.166 41.9972 199.09 41.8253 198.936 41.6861C198.786 41.5469 198.554 41.4418 198.242 41.3707L197.134 41.1278C196.523 40.9886 196.071 40.767 195.779 40.4631C195.489 40.1591 195.344 39.7742 195.344 39.3082C195.344 38.9219 195.452 38.5838 195.668 38.294C195.884 38.0043 196.182 37.7784 196.563 37.6165C196.943 37.4517 197.38 37.3693 197.871 37.3693C198.578 37.3693 199.135 37.5227 199.541 37.8295C199.948 38.1335 200.216 38.5412 200.347 39.0526Z" fill="black"/>
<path d="M205.113 44.1321C204.499 44.1321 203.964 43.9915 203.506 43.7102C203.049 43.429 202.694 43.0355 202.441 42.5298C202.188 42.0242 202.062 41.4332 202.062 40.7571C202.062 40.0781 202.188 39.4844 202.441 38.9759C202.694 38.4673 203.049 38.0724 203.506 37.7912C203.964 37.5099 204.499 37.3693 205.113 37.3693C205.726 37.3693 206.262 37.5099 206.719 37.7912C207.177 38.0724 207.532 38.4673 207.785 38.9759C208.037 39.4844 208.164 40.0781 208.164 40.7571C208.164 41.4332 208.037 42.0242 207.785 42.5298C207.532 43.0355 207.177 43.429 206.719 43.7102C206.262 43.9915 205.726 44.1321 205.113 44.1321ZM205.117 43.0625C205.515 43.0625 205.844 42.9574 206.106 42.7472C206.367 42.5369 206.56 42.2571 206.685 41.9077C206.813 41.5582 206.877 41.1733 206.877 40.7528C206.877 40.3352 206.813 39.9517 206.685 39.6023C206.56 39.25 206.367 38.9673 206.106 38.7543C205.844 38.5412 205.515 38.4347 205.117 38.4347C204.716 38.4347 204.384 38.5412 204.12 38.7543C203.858 38.9673 203.664 39.25 203.536 39.6023C203.411 39.9517 203.349 40.3352 203.349 40.7528C203.349 41.1733 203.411 41.5582 203.536 41.9077C203.664 42.2571 203.858 42.5369 204.12 42.7472C204.384 42.9574 204.716 43.0625 205.117 43.0625Z" fill="black"/>
<path d="M210.066 44V37.4545H211.298V38.4943H211.366C211.485 38.142 211.695 37.8651 211.996 37.6634C212.3 37.4588 212.644 37.3565 213.028 37.3565C213.107 37.3565 213.201 37.3594 213.309 37.3651C213.42 37.3707 213.506 37.3778 213.569 37.3864V38.6051C213.518 38.5909 213.427 38.5753 213.296 38.5582C213.166 38.5384 213.035 38.5284 212.904 38.5284C212.603 38.5284 212.335 38.5923 212.099 38.7202C211.866 38.8452 211.681 39.0199 211.545 39.2443C211.408 39.4659 211.34 39.7188 211.34 40.0028V44H210.066Z" fill="black"/>
<path d="M215.152 44V37.4545H216.426V44H215.152ZM215.795 36.4446C215.573 36.4446 215.383 36.3707 215.224 36.223C215.068 36.0724 214.99 35.8935 214.99 35.6861C214.99 35.4759 215.068 35.2969 215.224 35.1492C215.383 34.9986 215.573 34.9233 215.795 34.9233C216.017 34.9233 216.206 34.9986 216.362 35.1492C216.521 35.2969 216.6 35.4759 216.6 35.6861C216.6 35.8935 216.521 36.0724 216.362 36.223C216.206 36.3707 216.017 36.4446 215.795 36.4446Z" fill="black"/>
<path d="M221.441 44.1321C220.796 44.1321 220.241 43.9943 219.775 43.7188C219.312 43.4403 218.954 43.0497 218.701 42.5469C218.451 42.0412 218.326 41.4489 218.326 40.7699C218.326 40.0994 218.451 39.5085 218.701 38.9972C218.954 38.4858 219.306 38.0867 219.758 37.7997C220.212 37.5128 220.743 37.3693 221.351 37.3693C221.721 37.3693 222.079 37.4304 222.425 37.5526C222.772 37.6747 223.083 37.8665 223.358 38.1278C223.634 38.3892 223.851 38.7287 224.01 39.1463C224.17 39.5611 224.249 40.0653 224.249 40.6591V41.1108H219.046V40.1563H223.001C223.001 39.821 222.932 39.5242 222.796 39.2656C222.66 39.0043 222.468 38.7983 222.221 38.6477C221.976 38.4972 221.689 38.4219 221.36 38.4219C221.002 38.4219 220.689 38.5099 220.422 38.6861C220.158 38.8594 219.954 39.0867 219.809 39.3679C219.667 39.6463 219.596 39.9489 219.596 40.2756V41.0213C219.596 41.4588 219.672 41.831 219.826 42.1378C219.982 42.4446 220.199 42.679 220.478 42.8409C220.756 43 221.081 43.0795 221.454 43.0795C221.695 43.0795 221.915 43.0455 222.114 42.9773C222.313 42.9063 222.485 42.8011 222.63 42.6619C222.775 42.5227 222.885 42.3509 222.962 42.1463L224.168 42.3636C224.072 42.7188 223.898 43.0298 223.648 43.2969C223.401 43.5611 223.09 43.767 222.715 43.9148C222.343 44.0597 221.918 44.1321 221.441 44.1321Z" fill="black"/>
<path d="M227.417 35.2727V44H226.143V35.2727H227.417Z" fill="black"/>
<path d="M230.885 35.2727V44H229.611V35.2727H230.885Z" fill="black"/>
<path d="M235.9 44.1321C235.256 44.1321 234.7 43.9943 234.234 43.7188C233.771 43.4403 233.413 43.0497 233.16 42.5469C232.91 42.0412 232.785 41.4489 232.785 40.7699C232.785 40.0994 232.91 39.5085 233.16 38.9972C233.413 38.4858 233.765 38.0867 234.217 37.7997C234.672 37.5128 235.203 37.3693 235.811 37.3693C236.18 37.3693 236.538 37.4304 236.885 37.5526C237.231 37.6747 237.542 37.8665 237.818 38.1278C238.094 38.3892 238.311 38.7287 238.47 39.1463C238.629 39.5611 238.709 40.0653 238.709 40.6591V41.1108H233.506V40.1563H237.46C237.46 39.821 237.392 39.5242 237.256 39.2656C237.119 39.0043 236.927 38.7983 236.68 38.6477C236.436 38.4972 236.149 38.4219 235.819 38.4219C235.461 38.4219 235.149 38.5099 234.882 38.6861C234.618 38.8594 234.413 39.0867 234.268 39.3679C234.126 39.6463 234.055 39.9489 234.055 40.2756V41.0213C234.055 41.4588 234.132 41.831 234.285 42.1378C234.442 42.4446 234.659 42.679 234.937 42.8409C235.216 43 235.541 43.0795 235.913 43.0795C236.155 43.0795 236.375 43.0455 236.574 42.9773C236.773 42.9063 236.944 42.8011 237.089 42.6619C237.234 42.5227 237.345 42.3509 237.422 42.1463L238.628 42.3636C238.531 42.7188 238.358 43.0298 238.108 43.2969C237.861 43.5611 237.55 43.767 237.175 43.9148C236.802 44.0597 236.378 44.1321 235.9 44.1321Z" fill="black"/>
<path d="M247.079 44.1321C246.434 44.1321 245.879 43.9943 245.413 43.7188C244.95 43.4403 244.592 43.0497 244.339 42.5469C244.089 42.0412 243.964 41.4489 243.964 40.7699C243.964 40.0994 244.089 39.5085 244.339 38.9972C244.592 38.4858 244.944 38.0867 245.396 37.7997C245.85 37.5128 246.382 37.3693 246.99 37.3693C247.359 37.3693 247.717 37.4304 248.064 37.5526C248.41 37.6747 248.721 37.8665 248.997 38.1278C249.272 38.3892 249.49 38.7287 249.649 39.1463C249.808 39.5611 249.887 40.0653 249.887 40.6591V41.1108H244.684V40.1563H248.639C248.639 39.821 248.571 39.5242 248.434 39.2656C248.298 39.0043 248.106 38.7983 247.859 38.6477C247.615 38.4972 247.328 38.4219 246.998 38.4219C246.64 38.4219 246.328 38.5099 246.061 38.6861C245.796 38.8594 245.592 39.0867 245.447 39.3679C245.305 39.6463 245.234 39.9489 245.234 40.2756V41.0213C245.234 41.4588 245.311 41.831 245.464 42.1378C245.62 42.4446 245.838 42.679 246.116 42.8409C246.394 43 246.72 43.0795 247.092 43.0795C247.333 43.0795 247.554 43.0455 247.752 42.9773C247.951 42.9063 248.123 42.8011 248.268 42.6619C248.413 42.5227 248.524 42.3509 248.6 42.1463L249.806 42.3636C249.71 42.7188 249.537 43.0298 249.287 43.2969C249.039 43.5611 248.728 43.767 248.353 43.9148C247.981 44.0597 247.556 44.1321 247.079 44.1321Z" fill="black"/>
<path d="M254.836 37.4545V38.4773H251.261V37.4545H254.836ZM252.22 35.8864H253.494V42.0781C253.494 42.3253 253.531 42.5114 253.605 42.6364C253.679 42.7585 253.774 42.8423 253.89 42.8878C254.01 42.9304 254.139 42.9517 254.278 42.9517C254.381 42.9517 254.47 42.9446 254.547 42.9304C254.623 42.9162 254.683 42.9048 254.726 42.8963L254.956 43.9489C254.882 43.9773 254.777 44.0057 254.64 44.0341C254.504 44.0653 254.334 44.0824 254.129 44.0852C253.794 44.0909 253.481 44.0313 253.192 43.9063C252.902 43.7813 252.667 43.5881 252.488 43.3267C252.31 43.0653 252.22 42.7372 252.22 42.3423V35.8864Z" fill="black"/>
<path d="M260.484 35.2727H262.082L264.86 42.0568H264.963L267.741 35.2727H269.339V44H268.086V37.6847H268.005L265.431 43.9872H264.392L261.818 37.6804H261.737V44H260.484V35.2727Z" fill="black"/>
<path d="M274.388 44.1321C273.775 44.1321 273.239 43.9915 272.782 43.7102C272.324 43.429 271.969 43.0355 271.716 42.5298C271.464 42.0242 271.337 41.4332 271.337 40.7571C271.337 40.0781 271.464 39.4844 271.716 38.9759C271.969 38.4673 272.324 38.0724 272.782 37.7912C273.239 37.5099 273.775 37.3693 274.388 37.3693C275.002 37.3693 275.538 37.5099 275.995 37.7912C276.452 38.0724 276.807 38.4673 277.06 38.9759C277.313 39.4844 277.439 40.0781 277.439 40.7571C277.439 41.4332 277.313 42.0242 277.06 42.5298C276.807 43.0355 276.452 43.429 275.995 43.7102C275.538 43.9915 275.002 44.1321 274.388 44.1321ZM274.393 43.0625C274.79 43.0625 275.12 42.9574 275.381 42.7472C275.643 42.5369 275.836 42.2571 275.961 41.9077C276.089 41.5582 276.153 41.1733 276.153 40.7528C276.153 40.3352 276.089 39.9517 275.961 39.6023C275.836 39.25 275.643 38.9673 275.381 38.7543C275.12 38.5412 274.79 38.4347 274.393 38.4347C273.992 38.4347 273.66 38.5412 273.395 38.7543C273.134 38.9673 272.939 39.25 272.812 39.6023C272.687 39.9517 272.624 40.3352 272.624 40.7528C272.624 41.1733 272.687 41.5582 272.812 41.9077C272.939 42.2571 273.134 42.5369 273.395 42.7472C273.66 42.9574 273.992 43.0625 274.393 43.0625Z" fill="black"/>
<path d="M282.397 37.4545V38.4773H278.822V37.4545H282.397ZM279.781 35.8864H281.055V42.0781C281.055 42.3253 281.092 42.5114 281.166 42.6364C281.239 42.7585 281.335 42.8423 281.451 42.8878C281.57 42.9304 281.7 42.9517 281.839 42.9517C281.941 42.9517 282.031 42.9446 282.107 42.9304C282.184 42.9162 282.244 42.9048 282.286 42.8963L282.516 43.9489C282.443 43.9773 282.337 44.0057 282.201 44.0341C282.065 44.0653 281.894 44.0824 281.69 44.0852C281.355 44.0909 281.042 44.0313 280.752 43.9063C280.462 43.7813 280.228 43.5881 280.049 43.3267C279.87 43.0653 279.781 42.7372 279.781 42.3423V35.8864Z" fill="black"/>
<path d="M284.287 44V37.4545H285.518V38.4943H285.586C285.706 38.142 285.916 37.8651 286.217 37.6634C286.521 37.4588 286.865 37.3565 287.248 37.3565C287.328 37.3565 287.421 37.3594 287.529 37.3651C287.64 37.3707 287.727 37.3778 287.789 37.3864V38.6051C287.738 38.5909 287.647 38.5753 287.517 38.5582C287.386 38.5384 287.255 38.5284 287.125 38.5284C286.823 38.5284 286.555 38.5923 286.319 38.7202C286.086 38.8452 285.902 39.0199 285.765 39.2443C285.629 39.4659 285.561 39.7188 285.561 40.0028V44H284.287Z" fill="black"/>
<path d="M289.372 44V37.4545H290.646V44H289.372ZM290.015 36.4446C289.794 36.4446 289.604 36.3707 289.444 36.223C289.288 36.0724 289.21 35.8935 289.21 35.6861C289.21 35.4759 289.288 35.2969 289.444 35.1492C289.604 34.9986 289.794 34.9233 290.015 34.9233C290.237 34.9233 290.426 34.9986 290.582 35.1492C290.741 35.2969 290.821 35.4759 290.821 35.6861C290.821 35.8935 290.741 36.0724 290.582 36.223C290.426 36.3707 290.237 36.4446 290.015 36.4446Z" fill="black"/>
<path d="M295.597 44.1321C294.964 44.1321 294.418 43.9886 293.961 43.7017C293.506 43.4119 293.157 43.0128 292.913 42.5043C292.668 41.9957 292.546 41.4134 292.546 40.7571C292.546 40.0923 292.671 39.5057 292.921 38.9972C293.171 38.4858 293.524 38.0867 293.978 37.7997C294.433 37.5128 294.968 37.3693 295.585 37.3693C296.082 37.3693 296.525 37.4617 296.914 37.6463C297.303 37.8281 297.617 38.0838 297.856 38.4134C298.097 38.7429 298.241 39.1278 298.286 39.5682H297.046C296.978 39.2614 296.822 38.9972 296.578 38.7756C296.336 38.554 296.012 38.4432 295.606 38.4432C295.251 38.4432 294.94 38.5369 294.673 38.7244C294.408 38.9091 294.203 39.1733 294.055 39.517C293.907 39.858 293.833 40.2614 293.833 40.7273C293.833 41.2045 293.906 41.6165 294.051 41.9631C294.195 42.3097 294.4 42.5781 294.664 42.7685C294.931 42.9588 295.245 43.054 295.606 43.054C295.847 43.054 296.066 43.0099 296.262 42.9219C296.461 42.831 296.627 42.7017 296.761 42.5341C296.897 42.3665 296.992 42.1648 297.046 41.929H298.286C298.241 42.3523 298.103 42.7301 297.873 43.0625C297.643 43.3949 297.335 43.6563 296.948 43.8466C296.565 44.0369 296.114 44.1321 295.597 44.1321Z" fill="black"/>
<path d="M302.95 44.1321C302.305 44.1321 301.75 43.9943 301.284 43.7188C300.821 43.4403 300.463 43.0497 300.21 42.5469C299.96 42.0412 299.835 41.4489 299.835 40.7699C299.835 40.0994 299.96 39.5085 300.21 38.9972C300.463 38.4858 300.815 38.0867 301.267 37.7997C301.721 37.5128 302.252 37.3693 302.86 37.3693C303.23 37.3693 303.588 37.4304 303.934 37.5526C304.281 37.6747 304.592 37.8665 304.868 38.1278C305.143 38.3892 305.36 38.7287 305.52 39.1463C305.679 39.5611 305.758 40.0653 305.758 40.6591V41.1108H300.555V40.1563H304.51C304.51 39.821 304.441 39.5242 304.305 39.2656C304.169 39.0043 303.977 38.7983 303.73 38.6477C303.485 38.4972 303.199 38.4219 302.869 38.4219C302.511 38.4219 302.199 38.5099 301.931 38.6861C301.667 38.8594 301.463 39.0867 301.318 39.3679C301.176 39.6463 301.105 39.9489 301.105 40.2756V41.0213C301.105 41.4588 301.181 41.831 301.335 42.1378C301.491 42.4446 301.708 42.679 301.987 42.8409C302.265 43 302.591 43.0795 302.963 43.0795C303.204 43.0795 303.424 43.0455 303.623 42.9773C303.822 42.9063 303.994 42.8011 304.139 42.6619C304.284 42.5227 304.395 42.3509 304.471 42.1463L305.677 42.3636C305.581 42.7188 305.407 43.0298 305.157 43.2969C304.91 43.5611 304.599 43.767 304.224 43.9148C303.852 44.0597 303.427 44.1321 302.95 44.1321Z" fill="black"/>
<path d="M54.7085 0.759979C36.9567 2.61419 32.8184 16.1303 32.8184 16.1303L34.1047 19.5581C34.1047 19.5581 39.1093 5.93067 54.7085 0.759979Z" fill="#4A423F"/>
<path d="M41.8486 23.6064C46.2099 19.616 51.1296 18.4083 51.1296 18.4083C51.1296 18.4083 55.7989 17.0878 59.6278 14.6709C63.4582 12.2541 63.3459 11.8043 64.4366 10.5127C65.5273 9.21963 66.8684 5.39839 65.2467 2.84125C63.6251 0.284106 59.6278 0.396921 59.6278 0.396921C59.6278 0.396921 62.4509 1.80132 62.8423 3.99398C63.2337 6.18665 62.143 8.79875 60.4106 10.5127C58.6767 12.2266 51.3814 16.1332 49.8432 16.8072C48.305 17.4812 42.0429 20.2075 41.8472 23.6079L41.8486 23.6064Z" fill="#1CACE1"/>
<path d="M46.5727 48.2782C55.7429 48.6152 55.5558 43.1828 55.2206 40.8975C54.8853 38.6123 52.1643 34.4526 48.5857 32.0184C45.0072 29.5828 42.3236 27.2599 42.2114 25.1613C42.0991 23.0626 47.0202 21.2648 47.0202 21.2648C47.0202 21.2648 44.859 22.4262 44.6719 24.2241C44.4848 26.0219 47.2432 28.5327 51.3441 31.5296C55.445 34.5264 59.5071 39.6595 59.6941 43.1813C59.8812 46.7032 59.2466 53.0729 46.5741 48.2768L46.5727 48.2782Z" fill="#1CACE1"/>
<path d="M36.7693 34.8272C36.4714 37.4494 36.6571 40.1469 40.3853 44.4932C44.1121 48.8394 50.4864 47.0778 50.4864 47.0778C50.4864 47.0778 44.9135 46.628 41.8487 43.1437C38.7823 39.6595 36.7693 34.8258 36.7693 34.8258V34.8272Z" fill="#1CACE1"/>
<path d="M23.3271 24.0085C19.1499 19.8243 14.2893 18.3924 14.2893 18.3924C14.2893 18.3924 9.68479 16.8607 5.96809 14.2717C2.25138 11.6828 2.38232 11.2387 1.35206 9.89798C0.321798 8.55722 -0.848037 4.67812 0.88729 2.19763C2.62262 -0.28285 6.60984 0.0107582 6.60984 0.0107582C6.60984 0.0107582 3.72626 1.28644 3.23559 3.4574C2.74492 5.62837 3.71763 8.28964 5.37094 10.0802C7.02425 11.8708 14.1382 16.1057 15.6433 16.8491C17.1484 17.5925 23.2825 20.6009 23.3242 24.0071L23.3271 24.0085Z" fill="#1CACE1"/>
<path d="M17.2405 47.9224C8.06458 47.989 8.40992 42.5637 8.81281 40.2901C9.21571 38.0164 12.0561 33.9392 15.7038 31.6105C19.3514 29.2819 22.1026 27.0386 22.2753 24.9458C22.4479 22.8515 17.583 20.909 17.583 20.909C17.583 20.909 19.7097 22.1341 19.8435 23.9377C19.9773 25.7413 17.147 28.1682 12.9612 31.0436C8.7754 33.9189 4.56371 38.9291 4.27449 42.4451C3.98527 45.9597 4.43277 52.3454 17.2405 47.9253V47.9224Z" fill="#1CACE1"/>
<path d="M27.4249 35.1599C27.4666 37.7994 27.0191 40.465 22.8866 44.4251C18.754 48.3838 12.5825 46.006 12.5825 46.006C12.5825 46.006 18.1727 46.1058 21.5628 42.9397C24.9528 39.7737 27.4263 35.1613 27.4263 35.1613L27.4249 35.1599Z" fill="#1CACE1"/>
<path d="M28.9044 24.224C28.9044 24.224 29.9664 31.8116 31.8672 32.9354C31.8672 32.9354 33.9924 26.8101 29.798 18.2101C25.605 9.61161 22.697 5.67755 12.521 1.12445C12.521 1.12445 26.9044 4.32811 32.4053 17.0299C37.9063 29.7317 35.9493 35.8006 31.8672 45.1859C31.8672 45.1859 26.8914 33.4966 28.9044 24.2226V24.224Z" fill="#4A423F"/>
<path d="M31.8125 11.7479C33.2946 11.7479 34.496 10.5402 34.496 9.05043C34.496 7.56068 33.2946 6.353 31.8125 6.353C30.3304 6.353 29.1289 7.56068 29.1289 9.05043C29.1289 10.5402 30.3304 11.7479 31.8125 11.7479Z" fill="#4A423F"/>
</svg>
