<svg width="20" height="16" viewBox="0 0 20 16" fill="none" xmlns="http://www.w3.org/2000/svg">
<path fill-rule="evenodd" clip-rule="evenodd" d="M1.9048 0.967773C0.85782 0.967773 0 1.86848 0 2.96781V13.9677C0 15.0671 0.85782 15.9678 1.9048 15.9678H18.0952C19.1422 15.9678 20 15.0671 20 13.9677V2.96781C20 1.86848 19.1422 0.967773 18.0952 0.967773H1.9048ZM1.9048 1.96768H18.0952C18.1847 1.96768 18.2666 1.98372 18.3481 2.00674L10.6547 10.1549C10.2802 10.5523 9.70426 10.5523 9.33041 10.1549L1.6591 1.9987C1.73799 1.97743 1.81837 1.96749 1.90457 1.96749L1.9048 1.96768ZM5.85586 7.88771L0.989706 2.71772L0.98946 2.7178C0.970195 2.79871 0.952258 2.8798 0.952258 2.96787V13.9678C0.952258 14.0703 0.971192 14.1647 0.996934 14.2569L5.3167 10.0492C5.40479 9.9401 5.53616 9.87089 5.68291 9.87089C5.94814 9.87089 6.16316 10.097 6.16316 10.3758C6.16316 10.5513 6.07805 10.7059 5.94888 10.7964L1.6969 14.9364L1.69853 14.9368C1.76558 14.9522 1.83284 14.9676 1.90516 14.9676H18.0956C18.1676 14.9676 18.2347 14.9522 18.3017 14.9369L18.3038 14.9364L14.0167 10.7617C13.8795 10.6728 13.7881 10.5134 13.7881 10.3316C13.7881 10.0527 14.0031 9.8266 14.2684 9.8266C14.4008 9.8266 14.5208 9.883 14.6077 9.9742L14.6101 9.97163L19.003 14.2569C19.0289 14.1646 19.0477 14.0701 19.0477 13.9677V2.96779C19.0477 2.87955 19.0297 2.79846 19.0105 2.71772L13.3406 8.73323L13.343 8.7356L12.6665 9.44693L12.664 9.44446L12.6642 9.4442L12.165 9.97421L11.964 10.1856L11.965 10.1866L11.3324 10.8583C10.5968 11.6386 9.38908 11.6397 8.65384 10.8583L7.32953 9.45205L7.32814 9.45341L5.86041 7.883L5.85586 7.88771Z" fill="black"/>
</svg>
