<svg width="18" height="20" viewBox="0 0 18 20" fill="none" xmlns="http://www.w3.org/2000/svg">
<path fill-rule="evenodd" clip-rule="evenodd" d="M3.45232 13.7953C7.04187 18.5175 10.8103 19.6847 12.8108 19.9518L12.8114 19.9528L12.8942 19.9629C13.0239 19.9788 13.1547 19.9866 13.2856 19.986L13.2859 19.986L13.2862 19.9859C13.8369 19.9815 14.3744 19.8328 14.843 19.558C15.0254 19.4768 15.1522 19.2975 15.1513 19.0895C15.1501 18.8065 14.9127 18.5781 14.621 18.5795C14.4868 18.5802 14.3642 18.6296 14.2715 18.7101C13.8966 18.9212 13.4594 19.0097 13.0252 18.9585C11.2461 18.7379 7.71513 17.7025 4.28952 13.1949C0.878339 8.70643 0.883169 5.13153 1.18628 3.40508L1.19023 3.38365C1.28141 2.88797 1.56691 2.44579 1.98645 2.15039L1.98714 2.14991L3.48667 1.07299C3.52005 1.04901 3.56218 1.03965 3.60289 1.04716C3.64351 1.05466 3.67915 1.07837 3.70115 1.11269L5.89615 4.53586C5.9301 4.59419 5.9186 4.6681 5.86765 4.71413L5.86756 4.71422L4.41915 6.07625C4.25365 6.30852 4.14509 6.57672 4.10456 6.86016L4.10447 6.86074L4.10439 6.86132C3.97766 7.79319 4.05174 9.67987 5.86396 12.0639C7.67615 14.4476 9.50838 15.0712 10.4622 15.2269L10.4627 15.227L10.4631 15.227C10.8925 15.2948 11.3325 15.2149 11.7078 15.0015L11.7083 15.0012L13.0507 14.2444L13.0508 14.2444L13.0924 14.221C13.1539 14.1863 13.2322 14.1988 13.2791 14.2512L15.9958 17.2927C16.023 17.323 16.036 17.3631 16.0314 17.4034L16.0314 17.4035L16.0314 17.4037C16.0269 17.4437 16.0054 17.48 15.9721 17.5038L15.9719 17.5039L15.9718 17.504L15.8454 17.5948C15.6927 17.6804 15.5837 17.8382 15.5845 18.0249C15.5858 18.3131 15.8417 18.5237 16.1276 18.5223C16.2662 18.5217 16.3944 18.4726 16.4912 18.3904L16.5919 18.3181C16.8593 18.1262 17.032 17.8348 17.0685 17.514C17.105 17.1934 17.0021 16.8724 16.7844 16.6288L14.0677 13.5874L14.0677 13.5873L14.0676 13.5872C13.886 13.3844 13.6373 13.2493 13.3642 13.2052C13.0911 13.161 12.8106 13.2106 12.571 13.3455L12.5709 13.3456L11.1858 14.1266L11.1852 14.127C11.0198 14.2221 10.8258 14.2584 10.6363 14.2299C9.8744 14.1051 8.31574 13.5851 6.70293 11.4633C5.09016 9.34132 5.0374 7.74015 5.13871 6.99511C5.16604 6.81047 5.25876 6.64086 5.4009 6.5155L5.40157 6.51492L6.57689 5.45736C6.77993 5.27425 6.91099 5.0284 6.9479 4.76199L6.94791 4.76187C6.98463 4.49553 6.92506 4.2249 6.77904 3.99649L6.7789 3.99626L4.58545 0.576779C4.40985 0.302897 4.12441 0.112955 3.79825 0.0526282C3.47195 -0.0076918 3.13457 0.0670509 2.86744 0.258885L1.36898 1.33443C0.732627 1.78455 0.30055 2.45645 0.163388 3.2092L0.163329 3.20952L0.16327 3.20985C-0.17696 5.11925 -0.187379 9.00711 3.45232 13.7953ZM6.45562 5.32794C6.45552 5.32803 6.45542 5.32812 6.45533 5.3282L6.45551 5.32804L6.45562 5.32794Z" fill="white"/>
</svg>
